<svg id="레이어_1" data-name="레이어 1" xmlns="http://www.w3.org/2000/svg" viewBox="0 0 108.95 91.05"><defs><style>.cls-1{fill:#199795;}.cls-2{fill:#62bfda;}.cls-3{fill:#123244;}.cls-4{fill:#fce6dd;}.cls-5{fill:#f8cb64;}.cls-6{fill:#eb5d36;}.cls-7{fill:#f4ada8;}</style></defs><path class="cls-1" d="M37.55,47.89c-.09-.26-.2-.52-.31-.78-.56-1.32-1-2.69-1.56-4-.74-1.76-1.54-3.49-2.35-5.22-.63-1.35-1.22-2.72-1.81-4.08s-1.1-2.51-1.67-3.75c-.19-.42-.39-.83-.59-1.24-.35-.73-.71-1.46-1.09-2.17-.6-1.11-1.24-2.18-1.94-3.22-.14-.22-.32-.42-.48-.64a2.5,2.5,0,0,1-.21-.35,1.79,1.79,0,0,0-.22-.34,2.14,2.14,0,0,1,.08-.32,5.3,5.3,0,0,0-.06-2.06l-.15-.8c-.09-.55-.21-1.09-.31-1.63s-.2-1.1-.31-1.65c-.07-.3-.12-.6-.17-.9s-.07-.51-.14-.79-.17-.2-.3-.22l-.6-.11-1-.14-.46,0h-.41c-.11,0-.24,0-.3.09s0,0,0,.05a2.05,2.05,0,0,1-.34.38,2.8,2.8,0,0,1-1.86.8,2.54,2.54,0,0,1-1.92-.39c-.24-.21-.44-.07-.71,0a7.8,7.8,0,0,0-1,.45,7.13,7.13,0,0,1-.92.54h0c-.23.06-.1.42-.07.58.09.65.17,1.3.3,1.95.18.87.33,1.75.55,2.61.07.27.14.53.2.8a6.93,6.93,0,0,0,.22,1.12,5.75,5.75,0,0,0,.59,1.06l.14.2c.24,1.63-.41,3.3-.39,4.93,0,2,0,4.11.06,6.15,0,.41,0,.81,0,1.22l0,1.1c0,.37,0,.74,0,1.1l0,.78,0,1.65c0,2-.3,3.92-.31,5.88,0,.94.09,1.88.14,2.82,0,.62,0,1.25.07,1.87a2.67,2.67,0,0,0,.17,1c.45.71,1.5,1,2.24,1.23a2.46,2.46,0,0,0,1,.3,5.06,5.06,0,0,0,.18.86c.08.24,1,.41,1.19.48a11.6,11.6,0,0,0,1.42.31c.31.05.61.08.91.1h.51A14.84,14.84,0,0,0,26,55.35q.91-.14,1.83-.33a11.49,11.49,0,0,0,1.57-.32l.94-.32.61-.2.3-.09L31.5,54l.4-.12c.46-.12.92-.25,1.37-.41a4,4,0,0,0,1.26-.73,1.58,1.58,0,0,0,.27-.31,1,1,0,0,0,.09-.18.37.37,0,0,0,0-.18c0-.08-.14-.38-.16-.46l.42-.27a6.86,6.86,0,0,0,1.38-1.31,4.44,4.44,0,0,0,.53-.7,4.25,4.25,0,0,1,.44-.74.41.41,0,0,0,.12-.27A1.4,1.4,0,0,0,37.55,47.89Z" transform="translate(-7.04 -13.43)"/><path class="cls-2" d="M21.06,45.67c0-.2-.27-.39-.48-.26a.41.41,0,0,0-.15.36.9.9,0,0,0,.12.46.57.57,0,0,0,.21.25C21.12,46.67,21.1,45.84,21.06,45.67Z" transform="translate(-7.04 -13.43)"/><path class="cls-2" d="M21.66,46.24c-.18,0-.31.12-.31.3a1.45,1.45,0,0,1,0,.3c0,.14-.08.35.09.45S22,47,22,46.85A.51.51,0,0,0,21.66,46.24Z" transform="translate(-7.04 -13.43)"/><path class="cls-2" d="M21.21,47.63c-.05-.09-.11-.16-.15-.25a2.06,2.06,0,0,0-.12-.26.36.36,0,0,0-.6,0,.48.48,0,0,0,0,.39.78.78,0,0,0,.74.45A.18.18,0,0,0,21.21,47.63Z" transform="translate(-7.04 -13.43)"/><path class="cls-2" d="M22.09,47.59a.24.24,0,0,0-.29.1c-.12.19-.1.74.14.87s.3-.26.34-.41a.59.59,0,0,0,0-.45A.33.33,0,0,0,22.09,47.59Z" transform="translate(-7.04 -13.43)"/><path class="cls-2" d="M22.06,49.21c0-.2-.44-.54-.49-.58s-.48-.22-.62,0A.32.32,0,0,0,21,49a.73.73,0,0,0,.39.34.88.88,0,0,0,.62,0A.11.11,0,0,0,22.06,49.21Z" transform="translate(-7.04 -13.43)"/><path class="cls-2" d="M33,46.17l0-.08c-.08-.14-.24-.31-.42-.25a.26.26,0,0,0-.14.29,1.1,1.1,0,0,0,.26.5.39.39,0,0,0,.25.15c.12,0,.16-.09.16-.2A1,1,0,0,0,33,46.17Z" transform="translate(-7.04 -13.43)"/><path class="cls-2" d="M33.2,47.51a2.3,2.3,0,0,1-.34-.28.38.38,0,0,0-.25-.16c-.18,0-.26.21-.21.36a.58.58,0,0,0,.81.27A.12.12,0,0,0,33.2,47.51Z" transform="translate(-7.04 -13.43)"/><path class="cls-2" d="M33.65,48.49c-.07-.09-.13-.08-.23-.12a.86.86,0,0,0-.47-.14.21.21,0,0,0-.15.25.34.34,0,0,0,.13.23.64.64,0,0,0,.54.08.46.46,0,0,0,.19-.08C33.76,48.65,33.72,48.56,33.65,48.49Z" transform="translate(-7.04 -13.43)"/><path class="cls-2" d="M27.15,48.17l0-.24a.6.6,0,0,1,.07-.45.4.4,0,0,1,.41-.15.27.27,0,0,1,.17.1.5.5,0,0,1,.06.34.93.93,0,0,1-.43.78h0a.13.13,0,0,1-.17-.07A1.8,1.8,0,0,1,27.15,48.17Z" transform="translate(-7.04 -13.43)"/><path class="cls-2" d="M26.5,48.21h.05c.41,0,.44.55.41.85,0,.07,0,.14-.07.18s-.16,0-.23,0a1,1,0,0,1-.31-.44.65.65,0,0,1,0-.39A.23.23,0,0,1,26.5,48.21Z" transform="translate(-7.04 -13.43)"/><path class="cls-2" d="M27,49.87a.06.06,0,0,1,0,0,1.11,1.11,0,0,1,.09-.19,1.21,1.21,0,0,1,.09-.2c.1-.21.29-.58.57-.56a.25.25,0,0,1,.2.18.74.74,0,0,1-.3.73,1.2,1.2,0,0,1-.27.16.55.55,0,0,1-.28.06A.12.12,0,0,1,27,49.9Z" transform="translate(-7.04 -13.43)"/><path class="cls-2" d="M26.09,49.59a.25.25,0,0,1,.34-.14.43.43,0,0,1,.22.44c0,.15.06.29.07.43a.16.16,0,0,1-.2.18c-.13,0-.22-.16-.29-.26A.76.76,0,0,1,26.09,49.59Z" transform="translate(-7.04 -13.43)"/><path class="cls-2" d="M26.56,50.91a.31.31,0,0,1,.11-.08.88.88,0,0,0,.29-.18,3.08,3.08,0,0,1,.24-.27c.13-.1.34-.17.47,0s0,.52-.18.67a.86.86,0,0,1-.7.21.37.37,0,0,1-.23-.12A.17.17,0,0,1,26.56,50.91Z" transform="translate(-7.04 -13.43)"/><path class="cls-2" d="M26.86,40.92a.25.25,0,0,1,.11-.16.31.31,0,0,1,.21,0,.53.53,0,0,1,.37.37.81.81,0,0,1,0,.53c-.07.14-.2.12-.31.05l-.16-.13a1,1,0,0,1-.25-.38A.39.39,0,0,1,26.86,40.92Z" transform="translate(-7.04 -13.43)"/><path class="cls-2" d="M28.22,42.54a.3.3,0,0,0,.23-.2,1,1,0,0,0,0-.66.37.37,0,0,0-.11-.19.33.33,0,0,0-.51.43c.06.16.07.33.14.47A.23.23,0,0,0,28.22,42.54Z" transform="translate(-7.04 -13.43)"/><path class="cls-2" d="M26.88,42.19a.14.14,0,0,0,0,.11.6.6,0,0,0,.19.31.93.93,0,0,0,.47.22c.13,0,.39,0,.3-.15s-.2-.2-.29-.31a1.12,1.12,0,0,0-.17-.21.37.37,0,0,0-.32-.11A.21.21,0,0,0,26.88,42.19Z" transform="translate(-7.04 -13.43)"/><path class="cls-2" d="M28.47,43.51c0-.11,0-.22,0-.33s0-.19,0-.29a.29.29,0,0,1,.55-.08.89.89,0,0,1-.22.82A.2.2,0,0,1,28.47,43.51Z" transform="translate(-7.04 -13.43)"/><path class="cls-2" d="M27.38,43.35a.25.25,0,0,1,.11-.12.42.42,0,0,1,.27,0,1.23,1.23,0,0,1,.31.24l.3.28a.21.21,0,0,1,.05.2.2.2,0,0,1-.22.09,1,1,0,0,1-.4-.1,1,1,0,0,1-.35-.21A.34.34,0,0,1,27.38,43.35Z" transform="translate(-7.04 -13.43)"/><path class="cls-2" d="M27.33,31.68a.33.33,0,0,0-.49.09.86.86,0,0,0,0,.55c0,.14.08.47.27.44s.27-.36.31-.51S27.5,31.81,27.33,31.68Z" transform="translate(-7.04 -13.43)"/><path class="cls-2" d="M26.86,33.16c0-.17-.08-.42-.29-.46a.29.29,0,0,0-.3.24.62.62,0,0,0,0,.33,2,2,0,0,0,.16.33l.05.06.05.06c.11.1.32.13.34,0a1.77,1.77,0,0,0,0-.46Z" transform="translate(-7.04 -13.43)"/><path class="cls-2" d="M27.82,33.13c-.1-.21-.51-.22-.55,0a1.15,1.15,0,0,1-.08.41.5.5,0,0,0-.07.29.13.13,0,0,0,.14.1.73.73,0,0,0,.57-.55.45.45,0,0,0,0-.28Z" transform="translate(-7.04 -13.43)"/><path class="cls-2" d="M27.12,34.49c-.09-.13-.2-.39-.36-.37a.34.34,0,0,0-.24.48.73.73,0,0,0,.28.35c.1.07.29.2.41.15s.1-.19.08-.28A.8.8,0,0,0,27.12,34.49Z" transform="translate(-7.04 -13.43)"/><path class="cls-2" d="M27.83,34.39a.33.33,0,0,0-.21.23,3.14,3.14,0,0,0-.13.68.12.12,0,0,0,.11.13c.34,0,.54-.44.54-.73S28,34.36,27.83,34.39Z" transform="translate(-7.04 -13.43)"/><path class="cls-2" d="M20.75,31.35a.84.84,0,0,0-.34-.38.17.17,0,0,0-.14,0c-.17,0-.21.33-.18.47a.89.89,0,0,0,.61.6C21,32,20.8,31.48,20.75,31.35Z" transform="translate(-7.04 -13.43)"/><path class="cls-2" d="M21.25,32.66c-.1-.13-.28-.15-.42-.2s-.34-.15-.49,0a.34.34,0,0,0-.1.26.32.32,0,0,0,.18.3A1,1,0,0,0,21,33c.13,0,.39-.09.35-.28A.41.41,0,0,0,21.25,32.66Z" transform="translate(-7.04 -13.43)"/><path class="cls-2" d="M21.65,31.71h-.1a.35.35,0,0,0-.24.32,1.4,1.4,0,0,0,.1.45.87.87,0,0,0,.07.17c.05.09.12.18.23.14a.17.17,0,0,0,.12-.08l0,0a1.1,1.1,0,0,0,.06-.72A.36.36,0,0,0,21.65,31.71Z" transform="translate(-7.04 -13.43)"/><path class="cls-2" d="M22.1,33.74a.24.24,0,0,0-.09-.17,2.31,2.31,0,0,0-.56-.24.39.39,0,0,0-.28,0,.31.31,0,0,0-.12.31c.06.31.45.37.71.34S22.12,33.92,22.1,33.74Z" transform="translate(-7.04 -13.43)"/><path class="cls-2" d="M22.33,32.79a.27.27,0,0,0-.16.05c-.14.11-.08.32,0,.46s.07.19.11.29.2.38.39.2a.37.37,0,0,0,.1-.22,1,1,0,0,0,0-.3C22.74,33.08,22.55,32.79,22.33,32.79Z" transform="translate(-7.04 -13.43)"/><path class="cls-2" d="M26.23,26.4a.43.43,0,0,0-.29-.28.28.28,0,0,0-.38.24,1.11,1.11,0,0,0,.3.81c.08.07.18.15.28.13a.14.14,0,0,0,.15-.14c0-.18,0-.37,0-.55A.78.78,0,0,0,26.23,26.4Z" transform="translate(-7.04 -13.43)"/><path class="cls-2" d="M27.3,27a.59.59,0,0,0-.6.31,1.9,1.9,0,0,0-.2.37.2.2,0,0,0,.12.28.46.46,0,0,0,.32-.05,1.27,1.27,0,0,0,.47-.32c.18-.2.2-.51-.1-.59Z" transform="translate(-7.04 -13.43)"/><path class="cls-2" d="M26.11,28.45v0c-.06-.22,0-.55-.24-.7a.32.32,0,0,0-.49.17.7.7,0,0,0,0,.6,1,1,0,0,0,.39.38c.12.06.31.09.38-.07S26.15,28.56,26.11,28.45Z" transform="translate(-7.04 -13.43)"/><path class="cls-2" d="M26.76,28.32a.42.42,0,0,0-.14.09c-.12.12-.12.29-.19.44s-.26.29-.2.49a.13.13,0,0,0,.11.1c.41.06.79-.46.81-.84A.29.29,0,0,0,26.76,28.32Z" transform="translate(-7.04 -13.43)"/><path class="cls-2" d="M23.4,21a.9.9,0,0,0-.2-.27c-.24-.22-.67.07-.52.37a.75.75,0,0,0,.22.25c.11.09.19.23.32.31s.28.05.3-.12A.93.93,0,0,0,23.4,21Z" transform="translate(-7.04 -13.43)"/><path class="cls-2" d="M23.68,22.36a.38.38,0,0,0-.11-.11c-.17-.14-.5-.55-.74-.35a.3.3,0,0,0-.1.33.55.55,0,0,0,.26.28,1,1,0,0,0,.48.15.28.28,0,0,0,.22-.07.18.18,0,0,0,0-.21Z" transform="translate(-7.04 -13.43)"/><path class="cls-2" d="M24.23,21.59a.26.26,0,0,0-.22,0,.41.41,0,0,0-.18.44.92.92,0,0,0,.09.28s0,0,0,.05a.12.12,0,0,0,.19.05.8.8,0,0,0,.23-.37C24.44,21.9,24.42,21.66,24.23,21.59Z" transform="translate(-7.04 -13.43)"/><path class="cls-3" d="M17.61,23.83a15.69,15.69,0,0,0,1.81-.1c.3-.05.6-.11.91-.15s.58-.07.87-.12a14.22,14.22,0,0,0,1.72-.37c.25-.08.49-.19.73-.28s.47-.15.71-.21.16-.44-.07-.38l-.7.22-.67.26a12.9,12.9,0,0,1-1.72.38c-.29.05-.58.09-.88.12l-.88.14a11.88,11.88,0,0,1-1.79.12c-.24,0-.28.38,0,.37Z" transform="translate(-7.04 -13.43)"/><path class="cls-3" d="M16.65,14.72a15.25,15.25,0,0,0,1.18,2.68,19.88,19.88,0,0,0,1.61,2.38c.31.4.64.8,1,1.18.16.18.45-.07.28-.25A21.64,21.64,0,0,1,19,18.58a14.33,14.33,0,0,1-1.43-2.49,14.27,14.27,0,0,1-.6-1.53c-.08-.23-.42-.07-.34.16Z" transform="translate(-7.04 -13.43)"/><path class="cls-3" d="M21.36,13.8c-.06.61-.06,1.23-.11,1.84s-.1,1.29-.17,1.93-.18,1.22-.31,1.83l-.21.91c0,.17-.12.33-.18.5a.19.19,0,0,0,.35.13,5,5,0,0,0,.18-.5c.08-.3.15-.61.21-.92q.21-.91.33-1.86c.07-.64.12-1.28.17-1.92s.05-1.27.11-1.9a.19.19,0,0,0-.37,0Z" transform="translate(-7.04 -13.43)"/><path class="cls-3" d="M20.37,20.91c.27,2.15.81,4.25,1.22,6.37s.78,4.38,1.24,6.55,1,4.48,1.42,6.72.86,4.54,1.26,6.81c.21,1.14.4,2.28.63,3.42s.48,2.26.69,3.4c.06.28.11.56.16.85a.19.19,0,0,0,.37-.07c-.4-2.28-.92-4.54-1.33-6.82s-.8-4.54-1.24-6.81-.91-4.49-1.41-6.73-.87-4.41-1.27-6.62-.93-4.22-1.26-6.36c0-.26-.08-.52-.11-.78s-.4-.17-.37.07Z" transform="translate(-7.04 -13.43)"/><path class="cls-3" d="M19.73,53.15c-.05-.53,0-1.06-.05-1.59s-.08-1.35-.13-2c-.1-1.37-.2-2.73-.28-4.1s-.09-2.72-.18-4.07c-.07-1.06-.17-2.11-.24-3.17a36,36,0,0,1-.11-3.6c0-.24-.37-.28-.38,0a57.65,57.65,0,0,0,.31,6.3c.12,1.36.14,2.72.2,4.08s.17,2.74.27,4.1c.06.77.12,1.54.15,2.32,0,.61,0,1.24.06,1.86,0,.24.4.17.38-.07Z" transform="translate(-7.04 -13.43)"/><path class="cls-3" d="M34.27,49c-.5-1.42-1-2.83-1.56-4.24-.26-.69-.53-1.39-.76-2.1s-.45-1.43-.67-2.14-.49-1.59-.79-2.37c-.08-.22-.43-.06-.34.17.53,1.39.92,2.82,1.37,4.24s1,2.81,1.55,4.22c.29.79.58,1.58.86,2.38.09.23.43.07.34-.16Z" transform="translate(-7.04 -13.43)"/><path class="cls-3" d="M24.7,29.08a81.19,81.19,0,0,0,2.68,8.76c.5,1.48,1,3,1.43,4.47.21.74.42,1.48.64,2.22s.47,1.47.71,2.21a38.18,38.18,0,0,1,1.34,5,.19.19,0,0,0,.38-.07,35,35,0,0,0-1.18-4.5c-.46-1.46-.94-2.92-1.36-4.4-.84-3-1.91-5.89-2.87-8.84A47.89,47.89,0,0,1,25.08,29c-.06-.24-.43-.18-.38.06Z" transform="translate(-7.04 -13.43)"/><path class="cls-3" d="M22,46a30.42,30.42,0,0,0,.35,3.43c.07.53.17,1.05.26,1.58a6.38,6.38,0,0,1,.14,1.57c0,.24.37.28.38,0a16.75,16.75,0,0,0-.39-3.14,28.45,28.45,0,0,1-.36-3.44c0-.24-.39-.28-.38,0Z" transform="translate(-7.04 -13.43)"/><path class="cls-3" d="M22.16,44.29A8.39,8.39,0,0,0,22,42.48c-.05-.24-.42-.18-.37.06a7.62,7.62,0,0,1,.11,1.72c0,.24.37.27.38,0Z" transform="translate(-7.04 -13.43)"/><path class="cls-2" d="M18.45,19.57s0,0-.05-.05a.29.29,0,0,0-.34,0c-.37.19-.07.83.1,1.06s.19.16.27.08,0-.13.05-.2a3.57,3.57,0,0,0,0-.47A.83.83,0,0,0,18.45,19.57Z" transform="translate(-7.04 -13.43)"/><path class="cls-2" d="M18.24,21.1l-.1-.17a.64.64,0,0,0-.3-.33.23.23,0,0,0-.2,0,.31.31,0,0,0-.09.29.71.71,0,0,0,.33.54.61.61,0,0,0,.4.12c.06,0,.11-.08.1-.14A1.3,1.3,0,0,0,18.24,21.1Z" transform="translate(-7.04 -13.43)"/><path class="cls-2" d="M19.34,20.7v0c-.15-.23-.44-.11-.52.13a4,4,0,0,0-.11.6c0,.11-.05.26.07.27a.69.69,0,0,0,.57-.45A.55.55,0,0,0,19.34,20.7Z" transform="translate(-7.04 -13.43)"/><path class="cls-2" d="M18.55,22.27c-.13-.23-.3-.41-.5-.26a.39.39,0,0,0-.05.51.86.86,0,0,0,.62.41c.12,0,.15-.11.12-.2A4.64,4.64,0,0,0,18.55,22.27Z" transform="translate(-7.04 -13.43)"/><path class="cls-2" d="M19.54,22.2a.59.59,0,0,0,0-.08.23.23,0,0,0-.34-.05c-.13.11-.12.28-.15.43a1.49,1.49,0,0,0-.1.55c0,.18.21.1.31,0a1,1,0,0,0,.34-.51A.59.59,0,0,0,19.54,22.2Z" transform="translate(-7.04 -13.43)"/><path class="cls-2" d="M18.8,25.46a.36.36,0,0,0-.23.34l-.06.58a.21.21,0,0,0,0,.17c.13.09.37-.05.47-.14a.86.86,0,0,0,.2-.48C19.26,25.67,19.12,25.36,18.8,25.46Z" transform="translate(-7.04 -13.43)"/><path class="cls-2" d="M19.33,26.71c-.2,0-.39.22-.54.33s-.3.17-.29.32c.05.42.86.16,1-.05S19.66,26.68,19.33,26.71Z" transform="translate(-7.04 -13.43)"/><path class="cls-2" d="M19.09,27.91c-.13-.15-.34-.08-.49,0s-.18.1-.28.14a.74.74,0,0,0-.24.11.22.22,0,0,0,0,.3c.15.16.53.11.72.06S19.3,28.17,19.09,27.91Z" transform="translate(-7.04 -13.43)"/><path class="cls-2" d="M21.42,21.2a.27.27,0,0,0-.27-.09.26.26,0,0,0-.21.3.29.29,0,0,0,.4.17A.26.26,0,0,0,21.42,21.2Z" transform="translate(-7.04 -13.43)"/><path class="cls-2" d="M24.35,35.45a.26.26,0,0,0-.22.41.32.32,0,0,0,.16.09.24.24,0,0,0,.18-.05.26.26,0,0,0,.09-.18A.23.23,0,0,0,24.35,35.45Z" transform="translate(-7.04 -13.43)"/><path class="cls-2" d="M22,23.88a.25.25,0,0,0-.44,0,.27.27,0,0,0,0,.26.25.25,0,0,0,.13.12.23.23,0,0,0,.2,0A.25.25,0,0,0,22,23.88Z" transform="translate(-7.04 -13.43)"/><path class="cls-2" d="M23.72,32.24a.26.26,0,0,0-.34.33.22.22,0,0,0,.2.16.28.28,0,0,0,.29-.17A.26.26,0,0,0,23.72,32.24Z" transform="translate(-7.04 -13.43)"/><path class="cls-2" d="M22.63,26.51a.24.24,0,0,0-.18-.09.26.26,0,0,0-.29.2.27.27,0,0,0,.21.34.38.38,0,0,0,.21-.07A.26.26,0,0,0,22.63,26.51Z" transform="translate(-7.04 -13.43)"/><path class="cls-2" d="M25.14,38.61c-.18-.13-.35,0-.39.23a.25.25,0,0,0,.29.27A.28.28,0,0,0,25.14,38.61Z" transform="translate(-7.04 -13.43)"/><path class="cls-2" d="M23.28,29.38a.3.3,0,0,0-.08-.08.3.3,0,0,0-.44.29.23.23,0,0,0,.11.18.29.29,0,0,0,.4-.07A.36.36,0,0,0,23.28,29.38Z" transform="translate(-7.04 -13.43)"/><path class="cls-2" d="M17.27,35.05c-.24,0-.41.23-.42.46s-.2.53.1.63.47-.22.55-.43S17.61,35.08,17.27,35.05Z" transform="translate(-7.04 -13.43)"/><path class="cls-2" d="M16.49,36.52a3,3,0,0,0-.06.4c0,.13-.11.26-.24.21l0-1.1a.31.31,0,0,1,.25.14A.46.46,0,0,1,16.49,36.52Z" transform="translate(-7.04 -13.43)"/><path class="cls-2" d="M17.23,37h-.1a1.09,1.09,0,0,0-.33.23,1,1,0,0,1-.16.13.8.8,0,0,0-.19.13.24.24,0,0,0,0,.38.58.58,0,0,0,.43,0c.29,0,.67-.21.68-.56A.34.34,0,0,0,17.23,37Z" transform="translate(-7.04 -13.43)"/><path class="cls-2" d="M16.69,38.77a.6.6,0,0,1-.43.24c0-.26,0-.51,0-.77l.19,0a.29.29,0,0,1,.28.06A.38.38,0,0,1,16.69,38.77Z" transform="translate(-7.04 -13.43)"/><path class="cls-2" d="M20.69,37.12a.23.23,0,0,0-.28.12.46.46,0,0,0,0,.35c0,.15.12.6.35.55a.39.39,0,0,0,.27-.4C21,37.5,21,37.2,20.69,37.12Z" transform="translate(-7.04 -13.43)"/><path class="cls-2" d="M21.69,38a.21.21,0,0,0-.34,0,1.15,1.15,0,0,0-.12.75.17.17,0,0,0,.21.14.39.39,0,0,0,.23-.19.67.67,0,0,0,.13-.53A.45.45,0,0,0,21.69,38Z" transform="translate(-7.04 -13.43)"/><path class="cls-2" d="M21,39.13c-.11-.21-.23-.48-.48-.55a.23.23,0,0,0-.3.25.64.64,0,0,0,.33.45C20.69,39.33,21.17,39.38,21,39.13Z" transform="translate(-7.04 -13.43)"/><path class="cls-2" d="M22.28,39a.8.8,0,0,0-.13-.13c-.19-.12-.32.09-.37.25a1.65,1.65,0,0,0-.07.32c0,.1-.08.21,0,.3s.26.05.36,0a1,1,0,0,0,.28-.48A.37.37,0,0,0,22.28,39Z" transform="translate(-7.04 -13.43)"/><path class="cls-2" d="M21.5,40h0c-.16-.09-.38-.29-.56-.27a.28.28,0,0,0-.23.3c0,.41.58.51.9.46a.19.19,0,0,0,.13,0C21.87,40.26,21.63,40.08,21.5,40Z" transform="translate(-7.04 -13.43)"/><path class="cls-2" d="M30.68,34.63c-.1-.19-.28-.38-.44-.39s-.31.2-.25.4a.68.68,0,0,0,.61.38.12.12,0,0,0,.13-.11A.49.49,0,0,0,30.68,34.63Z" transform="translate(-7.04 -13.43)"/><path class="cls-2" d="M31.69,34.71c-.1-.09-.24-.21-.39-.16s-.15.33,0,.48.35.53.53.26A.52.52,0,0,0,31.69,34.71Z" transform="translate(-7.04 -13.43)"/><path class="cls-2" d="M31.42,35.58h0c-.17-.06-.84-.27-.8.12s.72.39.91.08C31.57,35.68,31.5,35.62,31.42,35.58Z" transform="translate(-7.04 -13.43)"/><path class="cls-2" d="M32.38,35.91c0-.06-.05-.11-.12-.1a.18.18,0,0,0-.1,0,2.43,2.43,0,0,1-.46.22c-.15.07-.24.23-.12.37a.36.36,0,0,0,.46.06A.57.57,0,0,0,32.38,35.91Z" transform="translate(-7.04 -13.43)"/><path class="cls-2" d="M30.29,52.66l-.07,0a.19.19,0,0,0-.07.12.49.49,0,0,0,0,.29,1,1,0,0,0,.45.43.12.12,0,0,0,.19-.09,1,1,0,0,0-.12-.53C30.63,52.78,30.45,52.61,30.29,52.66Z" transform="translate(-7.04 -13.43)"/><path class="cls-2" d="M31.38,53.08c-.17,0-.24.17-.26.31a1,1,0,0,0,0,.34l.09.24a.56.56,0,0,0,0,.12L31.5,54a1.45,1.45,0,0,0,.18-.53C31.68,53.32,31.58,53.09,31.38,53.08Z" transform="translate(-7.04 -13.43)"/><path class="cls-2" d="M31,54.18l-.61.2a.3.3,0,0,1-.06-.2.23.23,0,0,1,.27-.26.46.46,0,0,1,.19.08A1.18,1.18,0,0,1,31,54.18Z" transform="translate(-7.04 -13.43)"/><path class="cls-2" d="M33.86,40.92c-.42,0-.37.85-.14,1.06s.28-.07.32-.22a2.58,2.58,0,0,1,.08-.26C34.19,41.28,34.15,40.89,33.86,40.92Z" transform="translate(-7.04 -13.43)"/><path class="cls-2" d="M33.36,42c-.1,0-.2.06-.26.18l0,.06a.27.27,0,0,0,0,.09c.06.27.28.62.58.54.11,0,.13-.12.09-.22a3.53,3.53,0,0,0-.25-.56A.31.31,0,0,0,33.36,42Z" transform="translate(-7.04 -13.43)"/><path class="cls-2" d="M34.46,42.08a.17.17,0,0,0-.12,0c-.21.08-.17.39-.27.58a.67.67,0,0,0-.09.21.2.2,0,0,0,.14.22.36.36,0,0,0,.28-.17,1.36,1.36,0,0,0,.21-.32C34.68,42.44,34.69,42.11,34.46,42.08Z" transform="translate(-7.04 -13.43)"/><path class="cls-2" d="M33.47,43.16a.19.19,0,0,0-.15-.08c-.28,0-.38.39-.27.62s.45.58.64.39a.22.22,0,0,0,.05-.16,1.33,1.33,0,0,0-.13-.51A1.3,1.3,0,0,0,33.47,43.16Z" transform="translate(-7.04 -13.43)"/><path class="cls-2" d="M34.35,43.4a.37.37,0,0,0-.15.21c-.06.16-.29.27-.27.46s.19.14.3.11.58-.34.44-.65A.23.23,0,0,0,34.35,43.4Z" transform="translate(-7.04 -13.43)"/><path class="cls-2" d="M24.93,53a.26.26,0,0,0-.16-.09.39.39,0,0,0-.28,0,.5.5,0,0,0-.21.22,2.22,2.22,0,0,0-.09.37.5.5,0,0,0,0,.38c.12.28.42,0,.54-.1S25.12,53.18,24.93,53Z" transform="translate(-7.04 -13.43)"/><path class="cls-2" d="M23.55,53.6c-.29.14-.16.59,0,.82s.2.3.35.22.11-.21.12-.31A1.29,1.29,0,0,0,24,54a.51.51,0,0,0-.21-.38A.24.24,0,0,0,23.55,53.6Z" transform="translate(-7.04 -13.43)"/><path class="cls-2" d="M25,54.52a.26.26,0,0,0-.29-.16c-.24,0-.34.31-.46.49s-.17.22-.06.34.25,0,.37,0a.61.61,0,0,0,.37-.28A.47.47,0,0,0,25,54.52Z" transform="translate(-7.04 -13.43)"/><path class="cls-2" d="M23.79,55.47v0h-.51c-.1-.15-.22-.38-.07-.53a.3.3,0,0,1,.25-.09.33.33,0,0,1,.26.13A.61.61,0,0,1,23.79,55.47Z" transform="translate(-7.04 -13.43)"/><path class="cls-2" d="M18.14,47.74a.34.34,0,0,0-.07-.15.38.38,0,0,0-.6,0,1.23,1.23,0,0,0-.14.42,1,1,0,0,0,0,.48c.1.21.35,0,.43-.09l.28-.38A.37.37,0,0,0,18.14,47.74Z" transform="translate(-7.04 -13.43)"/><path class="cls-2" d="M17.07,48.56a.36.36,0,0,0-.36-.21.31.31,0,0,0-.22.39.93.93,0,0,0,.24.52.57.57,0,0,0,.16.15c.05,0,.14.09.2,0s.05-.15.05-.22,0-.22,0-.32A1,1,0,0,0,17.07,48.56Z" transform="translate(-7.04 -13.43)"/><path class="cls-2" d="M18.13,49a.09.09,0,0,0-.06,0,.36.36,0,0,0-.25,0c-.19.06-.22.24-.28.41s-.25.28-.17.45a.26.26,0,0,0,.33.1.68.68,0,0,0,.52-.72A.34.34,0,0,0,18.13,49Z" transform="translate(-7.04 -13.43)"/><path class="cls-2" d="M17,49.91c-.16-.16-.47,0-.51.21a.8.8,0,0,0,.13.47.47.47,0,0,0,.31.24c.19,0,.16-.2.17-.33a.84.84,0,0,0,0-.52A.2.2,0,0,0,17,49.91Z" transform="translate(-7.04 -13.43)"/><path class="cls-2" d="M18.06,50.49c-.14-.29-.48-.13-.53.12,0,.07,0,.14,0,.2a1.22,1.22,0,0,1-.12.19c0,.07-.05.18,0,.22a.46.46,0,0,0,.36-.06A.57.57,0,0,0,18.06,50.49Z" transform="translate(-7.04 -13.43)"/><path class="cls-1" d="M31.79,23a4.33,4.33,0,0,0-.57-1c-.33-.47-.68-.93-1-1.4l-.16-.24L30,20.19c-.93-1.44-1.88-2.91-2.8-4.37-.25-.38-.5-.75-.76-1.12a3.23,3.23,0,0,0-.72-.71,1.27,1.27,0,0,0-1.08-.43,1.65,1.65,0,0,0-.6.28c-.39.35-.21,1-.15,1.44.3,2,1.06,3.93,1,6,0,.91,0,1.82.06,2.73a2.84,2.84,0,0,0,.82,2,5.65,5.65,0,0,0,.82.8c.2.18.42.33.63.49a1.62,1.62,0,0,0,.63.37A2.25,2.25,0,0,0,29,27.56l.54-.17a.8.8,0,0,0,.46-.22,3.41,3.41,0,0,0,.52-.93,5.57,5.57,0,0,1,.67-1,3.16,3.16,0,0,0,.68-1.73A1.65,1.65,0,0,0,31.79,23Z" transform="translate(-7.04 -13.43)"/><path class="cls-2" d="M25.94,16.11a.4.4,0,0,0-.56-.15.68.68,0,0,0-.24.49,1.54,1.54,0,0,0,.05.48c0,.13.08.3.24.29s.26-.18.33-.32.31-.51.19-.76Z" transform="translate(-7.04 -13.43)"/><path class="cls-2" d="M24.87,17a.27.27,0,0,0-.26-.14c-.26,0-.36.32-.34.54a1.38,1.38,0,0,0,.28.66c.07.1.21.22.33.15a.29.29,0,0,0,.11-.3A2,2,0,0,0,24.87,17Z" transform="translate(-7.04 -13.43)"/><path class="cls-2" d="M26.27,17.6c-.07-.2-.38-.19-.52-.07s-.22.41-.37.58-.17.49.15.45S26.4,18,26.27,17.6Z" transform="translate(-7.04 -13.43)"/><path class="cls-2" d="M25.37,18.83a1.62,1.62,0,0,0-.45.28c-.08.06-.32.19-.3.31a.08.08,0,0,0,0,0c0,.11.14.16.23.17a1.07,1.07,0,0,0,.25,0,1.17,1.17,0,0,0,.39-.15.46.46,0,0,0,.23-.5C25.68,18.79,25.53,18.78,25.37,18.83Z" transform="translate(-7.04 -13.43)"/><path class="cls-3" d="M23.7,14.14a7.19,7.19,0,0,0,.21,2.69c.21,1.12.47,2.22.71,3.34a23.35,23.35,0,0,1,.28,3.24c0,.27,0,.55.07.83a4,4,0,0,0,.05.69,2.24,2.24,0,0,0,.61,1c.55.59,1.2,1.08,1.75,1.67.16.18.45-.06.28-.24-.47-.52-1-.95-1.52-1.44a2.82,2.82,0,0,1-.66-.84,1.37,1.37,0,0,1-.13-.66c0-.25,0-.51-.06-.76-.08-1.06-.05-2.13-.23-3.18s-.47-2.17-.69-3.26c-.09-.5-.19-1-.27-1.51a4.2,4.2,0,0,1,0-1.54c.05-.24-.33-.27-.38,0Z" transform="translate(-7.04 -13.43)"/><path class="cls-3" d="M27.5,27.68a2.72,2.72,0,0,0,1.1-.06.19.19,0,0,0-.07-.37,2.55,2.55,0,0,1-1,.05c-.24-.05-.27.33,0,.38Z" transform="translate(-7.04 -13.43)"/><path class="cls-3" d="M27.16,18.86a24.3,24.3,0,0,0,1.62,2.38,22,22,0,0,1,1.42,2.67.19.19,0,0,0,.34-.17,24.93,24.93,0,0,0-1.41-2.65A27.94,27.94,0,0,1,27.5,18.7a.19.19,0,0,0-.34.16Z" transform="translate(-7.04 -13.43)"/><path class="cls-3" d="M29.43,25a1.27,1.27,0,0,0-.07.88c.05.24.42.17.37-.06a.93.93,0,0,1,.05-.68c.11-.22-.24-.35-.35-.14Z" transform="translate(-7.04 -13.43)"/><path class="cls-2" d="M27.64,22.36a.29.29,0,0,0-.19-.07.23.23,0,0,0-.17.08.52.52,0,0,0,0,.54l.11.15a.79.79,0,0,0,.21.27c.14.08.22,0,.25-.12a.64.64,0,0,0,0-.2,1,1,0,0,0-.07-.44A.51.51,0,0,0,27.64,22.36Z" transform="translate(-7.04 -13.43)"/><path class="cls-2" d="M27.76,24.14h0l-.12-.21c-.07-.17-.1-.41-.28-.5a.31.31,0,0,0-.32,0,.28.28,0,0,0-.12.18.41.41,0,0,0,0,.22,1.32,1.32,0,0,0,.46.53c.09.05.2.11.29.05S27.8,24.24,27.76,24.14Z" transform="translate(-7.04 -13.43)"/><path class="cls-2" d="M28.42,23.42l-.08,0c-.16,0-.25.13-.26.28a1.13,1.13,0,0,0,0,.26,2.81,2.81,0,0,0,0,.41c0,.18.24.06.32,0a.65.65,0,0,0,.19-.43.47.47,0,0,0-.14-.44Z" transform="translate(-7.04 -13.43)"/><path class="cls-2" d="M28.11,25.17c-.07-.11-.2-.18-.27-.28s-.19-.23-.34-.2a.29.29,0,0,0-.2.4.77.77,0,0,0,.72.42.19.19,0,0,0,.14-.25A.26.26,0,0,0,28.11,25.17Z" transform="translate(-7.04 -13.43)"/><path class="cls-2" d="M28.85,24.67a.24.24,0,0,0-.35.1,1.32,1.32,0,0,0-.08.52c0,.12-.07.32,0,.41s.48-.41.5-.57A.66.66,0,0,0,29,25,.35.35,0,0,0,28.85,24.67Z" transform="translate(-7.04 -13.43)"/><path class="cls-2" d="M29.27,19.34a.66.66,0,0,1-.17-.21.41.41,0,0,0-.41-.31c-.33,0-.23.46-.09.63a.72.72,0,0,0,.73.26.12.12,0,0,0,.08-.16A.43.43,0,0,0,29.27,19.34Z" transform="translate(-7.04 -13.43)"/><path class="cls-2" d="M30.22,20.58a.45.45,0,0,1-.19.11.88.88,0,0,1-.6,0,.45.45,0,0,1-.23-.24.31.31,0,0,1,.06-.28c.18-.22.44,0,.66,0h0l.09.15Z" transform="translate(-7.04 -13.43)"/><path class="cls-1" d="M18.09,25.77c-.06-.16-.11-.31-.17-.46-1.1-3-2-6.16-2.8-9.29a1.07,1.07,0,0,0-.28-.55c-.28-.22-.64-.08-.94,0-.14,0-.26.19-.35.3a2.27,2.27,0,0,0-.29.4,4.29,4.29,0,0,0-.46,1.08v0c0,.12-.07.25-.11.38s-.07.31-.1.46l0,.19a.24.24,0,0,0,0,.08v.05l0,.18c0,.11-.05.21-.07.32s0,.09,0,.13l-.15.72,0,.19a44.36,44.36,0,0,0-.94,5.82A3.44,3.44,0,0,0,11.37,27a3.08,3.08,0,0,0,1.24,1.48c.32.22.65.41,1,.62l.29.21.35.29a1.7,1.7,0,0,0,.5.38,1.49,1.49,0,0,0,.63.06,2.93,2.93,0,0,0,1.78-.51,2.74,2.74,0,0,0,.64-1,4.25,4.25,0,0,0,.51-1.86A3.63,3.63,0,0,0,18.09,25.77Z" transform="translate(-7.04 -13.43)"/><path class="cls-3" d="M14.79,15.85a2,2,0,0,1,.44,1.2c0,.46.12.91.21,1.37a27.41,27.41,0,0,0,.76,2.79c.27.92.57,1.82.88,2.72.16.46.33.92.49,1.37.08.21.15.42.24.62a2.72,2.72,0,0,1,.27.63,1.36,1.36,0,0,1-.12.66c-.09.24-.15.48-.23.72a4.58,4.58,0,0,1-.64,1.36.19.19,0,0,0,.31.21A5.39,5.39,0,0,0,18,28.28c.07-.22.13-.44.2-.66a6.6,6.6,0,0,0,.2-.63,1.19,1.19,0,0,0,0-.62,4.85,4.85,0,0,0-.29-.67c-.19-.44-.34-.9-.5-1.36-.34-.93-.66-1.88-.95-2.84s-.6-1.93-.82-2.91c-.12-.53-.19-1.07-.26-1.61a2.24,2.24,0,0,0-.52-1.38c-.17-.17-.46.07-.29.25Z" transform="translate(-7.04 -13.43)"/><path class="cls-3" d="M16.15,30a3.52,3.52,0,0,0,.6-.2,4.17,4.17,0,0,0,.58-.24c.21-.12.05-.47-.16-.34a5.31,5.31,0,0,1-.55.23,3.11,3.11,0,0,1-.54.18.19.19,0,0,0,.07.37Z" transform="translate(-7.04 -13.43)"/><path class="cls-3" d="M12.9,23.11c-.05.78-.07,1.55-.05,2.33a5.06,5.06,0,0,0,.27,1.9c.1.22.44.06.35-.16a4.92,4.92,0,0,1-.25-1.83c0-.73,0-1.47.06-2.2,0-.24-.36-.28-.38,0Z" transform="translate(-7.04 -13.43)"/><path class="cls-2" d="M15.32,22.54a.88.88,0,0,1,0-.17,1.17,1.17,0,0,0-.15-.48.34.34,0,0,0-.38-.16.39.39,0,0,0-.26.17.52.52,0,0,0,.05.45c.11.29.32.64.66.7h0c.08,0,.13-.07.13-.14S15.34,22.66,15.32,22.54Z" transform="translate(-7.04 -13.43)"/><path class="cls-2" d="M16,22.43h0c-.39.15-.23.67-.1.94,0,.06.06.13.13.15s.15,0,.2-.11a.92.92,0,0,0,.15-.51.71.71,0,0,0-.09-.38A.23.23,0,0,0,16,22.43Z" transform="translate(-7.04 -13.43)"/><path class="cls-2" d="M16,24.17a.05.05,0,0,0,0,0L15.84,24l-.15-.16c-.17-.15-.48-.44-.73-.32a.25.25,0,0,0-.13.23c0,.28.29.5.53.58a1.08,1.08,0,0,0,.31.07.5.5,0,0,0,.29-.05s.08-.08.06-.13A0,0,0,0,0,16,24.17Z" transform="translate(-7.04 -13.43)"/><path class="cls-2" d="M16.81,23.58a.26.26,0,0,0-.37,0,.46.46,0,0,0-.06.49c0,.15,0,.29.08.43a.16.16,0,0,0,.25.1c.11-.06.15-.22.18-.34A.77.77,0,0,0,16.81,23.58Z" transform="translate(-7.04 -13.43)"/><path class="cls-2" d="M16.81,25a.25.25,0,0,0-.12,0,.8.8,0,0,1-.34-.07A3.24,3.24,0,0,0,16,24.7c-.16-.05-.38,0-.45.14s.2.48.4.57a.82.82,0,0,0,.73,0,.35.35,0,0,0,.17-.19A.16.16,0,0,0,16.81,25Z" transform="translate(-7.04 -13.43)"/><path class="cls-2" d="M14.38,17a.29.29,0,0,0-.33-.14.52.52,0,0,0-.35.28,1.45,1.45,0,0,0-.12.35.47.47,0,0,0,0,.35.19.19,0,0,0,.26,0,1.51,1.51,0,0,0,.48-.46A.42.42,0,0,0,14.38,17Z" transform="translate(-7.04 -13.43)"/><path class="cls-2" d="M14.49,18.3a.2.2,0,0,0-.11-.15.35.35,0,0,0-.23,0,.84.84,0,0,0-.33.16c-.09.07-.19.12-.29.19s-.26.23-.11.35a.64.64,0,0,0,.43.07,1,1,0,0,0,.5-.22A.38.38,0,0,0,14.49,18.3Z" transform="translate(-7.04 -13.43)"/><path class="cls-2" d="M13.3,18a1,1,0,0,1-.13.43,1.11,1.11,0,0,0-.09.19,1.55,1.55,0,0,1-.06.23l-.06.08a.14.14,0,0,1-.15,0,.87.87,0,0,1-.19-.69c0-.21.09-.56.35-.58a.31.31,0,0,1,.31.25A.29.29,0,0,1,13.3,18Z" transform="translate(-7.04 -13.43)"/><path class="cls-2" d="M14,19.18c-.13-.22-.46-.1-.63,0s-.3.23-.46.33-.15.21,0,.28a.38.38,0,0,0,.18,0,1.86,1.86,0,0,0,.52-.07.73.73,0,0,0,.41-.32.32.32,0,0,0,0-.14A.17.17,0,0,0,14,19.18Z" transform="translate(-7.04 -13.43)"/><path class="cls-2" d="M12.57,19.7c0,.09.06.4-.11.39a.35.35,0,0,1-.24-.12l0-.19.15-.72s0-.09,0-.13a.18.18,0,0,1,.08.09.61.61,0,0,1,.05.12A3.49,3.49,0,0,1,12.57,19.7Z" transform="translate(-7.04 -13.43)"/><path class="cls-2" d="M13.9,26.22a.19.19,0,0,0-.15,0c-.19.06-.19.36-.16.52a1.79,1.79,0,0,1,0,.33c0,.1,0,.3.08.37s.41-.13.48-.29a.93.93,0,0,0,0-.57A.5.5,0,0,0,13.9,26.22Z" transform="translate(-7.04 -13.43)"/><path class="cls-2" d="M14.29,27.51a.78.78,0,0,0-.16.2c-.06.09-.13.16-.2.25a.44.44,0,0,0-.13.37s0,.08.08.08a.46.46,0,0,0,.3-.07.77.77,0,0,0,.29-.17.5.5,0,0,0,.19-.52A.24.24,0,0,0,14.29,27.51Z" transform="translate(-7.04 -13.43)"/><path class="cls-2" d="M13.33,27.67a.47.47,0,0,0-.1-.1.24.24,0,0,0-.39.13.5.5,0,0,0,0,.32.77.77,0,0,0,.5.61c.12,0,.16-.06.18-.16a3.35,3.35,0,0,0-.07-.44A.7.7,0,0,0,13.33,27.67Z" transform="translate(-7.04 -13.43)"/><path class="cls-2" d="M14.63,29a.56.56,0,0,1-.34.26,1.51,1.51,0,0,1-.42.05l-.29-.21a.08.08,0,0,1,0,0c0-.07.1-.09.16-.12s.32-.2.47-.31a.29.29,0,0,1,.33,0h0A.32.32,0,0,1,14.63,29Z" transform="translate(-7.04 -13.43)"/><path class="cls-2" d="M116,77c0-.34,0-.84,0-1.18s-.11-1.32-.13-1.72c-.4-6.14-.89-10.69-1.49-16.56-.81-7.9-1.73-16.38-4-24.11a29.18,29.18,0,0,0-1.15-3.12,9.44,9.44,0,0,0-.6-1.24,2.22,2.22,0,0,0-.53-.75c-.15-.1-.71.05-1.1.12l-1.49.26q-1.5.24-3,.42-3,.38-6,.51c-.8,0-1.64,0-2.44.06a2.48,2.48,0,0,0-.72.05,6.73,6.73,0,0,0-.66,2.17c-.14,1.08-.36,2.2-.46,3.29a107.12,107.12,0,0,0,.22,19.12c.39,4,.72,7.08,1.06,11.1s.85,8.36,1.43,12.31c.05.28.05.51.1.88,0,.19,0,.52.2.66a.38.38,0,0,0,.23.08,18,18,0,0,0,2.64-.1l1.93-.11c.85-.06,1.77-.21,2.79-.27l.39,0c.2,0,.52-.24.51-.47-.14-7.82-1-15.56-1.36-23.36-.08-1.72-.13-3.43-.14-5.15,0-.84,0-1.69,0-2.53,0-.43-.15-3.89,0-3.92a8.38,8.38,0,0,1,.39,1.62c1.13,5.4,1.88,11.09,2.72,16.55.79,5.22,1.26,10.46,2.16,15.66,0,0,0,.08,0,.13a2.41,2.41,0,0,0,.15.63.64.64,0,0,0,.66.26c1.37,0,3-.19,4.34-.37.66-.09,1.33-.2,2-.31C114.86,77.49,116,77.41,116,77Z" transform="translate(-7.04 -13.43)"/><path class="cls-3" d="M96.47,30c0,.41,0,.83,0,1.24s0,.78,0,1.17a1.78,1.78,0,0,0,.22,1c.17.2.61.19.85.21s.62,0,.71-.31a3,3,0,0,0-.1-.94,14.54,14.54,0,0,1,0-2.38.28.28,0,0,0-.56,0,15.73,15.73,0,0,0,0,1.94,8.08,8.08,0,0,0,.09.86,3.91,3.91,0,0,0,.07.39l.1-.06h-.08l-.22,0c-.14,0-.3-.06-.44-.06h-.06c.12.11.16.13.13.06a.65.65,0,0,0,0-.19,8.28,8.28,0,0,1-.09-1c0-.65,0-1.3,0-1.94,0-.36-.58-.25-.56.11Z" transform="translate(-7.04 -13.43)"/><path class="cls-3" d="M103.69,29.28a12.92,12.92,0,0,1,.44,2.47c0,.31,0,.74.2,1s.45.13.68,0,.58-.15.71-.44a1.53,1.53,0,0,0,0-.85,14.75,14.75,0,0,0-.47-2.47c-.11-.35-.66-.24-.55.11a10.59,10.59,0,0,1,.39,1.94c0,.27.09.55.12.82a.4.4,0,0,1,0,.22c-.06.07-.26.09-.34.12l-.22.1h.1s0-.07,0-.11a1.09,1.09,0,0,1,0-.18c0-.32-.06-.63-.1-.95a11.42,11.42,0,0,0-.37-1.92c-.1-.35-.66-.24-.56.11Z" transform="translate(-7.04 -13.43)"/><path class="cls-3" d="M105.59,31.45a10.17,10.17,0,0,0,3.19-1c.31-.18.06-.68-.26-.5a9.74,9.74,0,0,1-3,.92.28.28,0,0,0,.11.55Z" transform="translate(-7.04 -13.43)"/><path class="cls-3" d="M97.87,32.27c1.08-.06,2.17-.06,3.25-.16s2.19-.27,3.28-.44c.36-.06.25-.62-.11-.56-1.06.17-2.12.33-3.19.43s-2.13.11-3.19.17a.29.29,0,0,0-.3.26.28.28,0,0,0,.26.3Z" transform="translate(-7.04 -13.43)"/><path class="cls-3" d="M93,32.06a12.06,12.06,0,0,0,1.78.31c.62,0,1.24,0,1.86,0,.36,0,.4-.57,0-.56-.59,0-1.18.05-1.77,0a10,10,0,0,1-1.72-.28c-.35-.08-.54.46-.19.53Z" transform="translate(-7.04 -13.43)"/><path class="cls-4" d="M101.29,30.15a.54.54,0,0,0-.68,0,.55.55,0,0,0-.07.85.51.51,0,0,0,.62.07.62.62,0,0,0,.26-.6A.49.49,0,0,0,101.29,30.15Z" transform="translate(-7.04 -13.43)"/><path class="cls-3" d="M92.56,35.8a4.56,4.56,0,0,0,2.56-.55,2.3,2.3,0,0,0,.89-.86,4.71,4.71,0,0,0,.32-1.7c0-.36-.52-.4-.56,0s-.07.65-.11,1a1.06,1.06,0,0,1-.13.47,1.74,1.74,0,0,1-.76.71,4.16,4.16,0,0,1-2.17.44.28.28,0,0,0,0,.56Z" transform="translate(-7.04 -13.43)"/><path class="cls-3" d="M106,31.74a4.39,4.39,0,0,0,.38,1.23,2.5,2.5,0,0,0,1,.93,4.47,4.47,0,0,0,2.73.2c.36-.05.25-.6-.11-.55a4.09,4.09,0,0,1-2.3-.12,1.81,1.81,0,0,1-.81-.74,4.33,4.33,0,0,1-.32-1.06.28.28,0,0,0-.55.11Z" transform="translate(-7.04 -13.43)"/><path class="cls-3" d="M99.41,29.79c.18,1.91.31,3.82.53,5.71.06.47.09.94.17,1.4s.17.93.22,1.4.06.91.14,1.35a7.88,7.88,0,0,0,.27,1.21c.12.34.63.09.51-.25a4,4,0,0,1-.13-.6c0-.21-.09-.42-.12-.64-.06-.43-.08-.88-.13-1.32s-.14-.9-.22-1.35-.11-.93-.16-1.4c-.22-1.87-.35-3.74-.53-5.62,0-.36-.59-.25-.55.11Z" transform="translate(-7.04 -13.43)"/><path class="cls-3" d="M101.78,29.69c.09.87.24,1.74.34,2.6,0,.44.14.88.19,1.32s.08.84.13,1.26c.1.87.2,1.74.26,2.62,0,.37,0,.75.1,1.12a3.62,3.62,0,0,1,0,1,1,1,0,0,1-.64.78,2.34,2.34,0,0,1-.58.2l-.25,0s-.18,0-.14,0c-.32-.18-.63.29-.32.47a1.35,1.35,0,0,0,.95,0,2.52,2.52,0,0,0,1-.49,2.25,2.25,0,0,0,.47-2.12c-.11-.91-.13-1.83-.23-2.75s-.19-1.93-.34-2.88c-.09-.55-.14-1.1-.22-1.64s-.17-1.12-.22-1.69c0-.36-.59-.25-.56.11Z" transform="translate(-7.04 -13.43)"/><path class="cls-3" d="M105.1,39.88A11,11,0,0,0,110,38.47c.31-.2.06-.71-.25-.51A10.73,10.73,0,0,1,105,39.33c-.37,0-.25.59.11.55Z" transform="translate(-7.04 -13.43)"/><path class="cls-3" d="M106.1,41.14a5.52,5.52,0,0,0,3-.19c.34-.13.08-.64-.25-.51a5,5,0,0,1-2.67.14c-.36-.06-.4.5,0,.56Z" transform="translate(-7.04 -13.43)"/><path class="cls-3" d="M93.64,39.86c1.39,1.19,3.28,1,5,1.09a.29.29,0,0,0,0-.57c-1.6-.09-3.39.13-4.71-1-.27-.23-.58.24-.31.47Z" transform="translate(-7.04 -13.43)"/><path class="cls-3" d="M96.3,42.46a6.12,6.12,0,0,0,1.93-.65c.33-.15.08-.65-.26-.5a5.85,5.85,0,0,1-1.78.6c-.36,0-.25.59.11.55Z" transform="translate(-7.04 -13.43)"/><path class="cls-3" d="M108.49,76.67c1.14-.1,2.28,0,3.41-.25l1.69-.35a12,12,0,0,0,1.64-.43c.34-.13.08-.64-.26-.51a10.75,10.75,0,0,1-1.58.4c-.56.12-1.12.25-1.69.35-1.1.2-2.21.14-3.32.24-.36,0-.25.59.11.55Z" transform="translate(-7.04 -13.43)"/><path class="cls-3" d="M95.83,77.78c.57,0,1.14,0,1.71,0s1.17-.06,1.75-.11,1.17-.1,1.75-.17,1.14-.27,1.71-.32c.37,0,.25-.58-.11-.55-.56,0-1.1.23-1.66.31s-1.2.12-1.8.18-1.15.09-1.73.09-1.15,0-1.73,0c-.36,0-.25.59.11.56Z" transform="translate(-7.04 -13.43)"/><path class="cls-5" d="M14.58,76.66c-.11-.25-.48-.21-.73-.09a1.92,1.92,0,0,0-.73.77c-1.53,2.57-1.84,5.43-3.54,8-.52.77-1.16,1.49-1.68,2.27-.22.34-.81.84-.86,1.11s.73.73,1.11,1a11.77,11.77,0,0,0,6.53,2.47,8.57,8.57,0,0,1,1.69.07c.58.14.48-.46.44-.71-.08-.56-.16-1.12-.25-1.67l-1.33-8.95c-.2-1.34-.33-2.7-.61-4A.58.58,0,0,0,14.58,76.66Z" transform="translate(-7.04 -13.43)"/><path class="cls-5" d="M47.5,80.05A10.89,10.89,0,0,1,46,78.94c-.42-.37-.85-.73-1.3-1.08-.75-.58-1.49-1.17-2.17-1.8-1-1-2-2-3.09-2.91a6.6,6.6,0,0,0-1.76-1c-.21-.08-1.88-.77-1.73-.1.22,1,.55,1.63.84,2.6s.77,2,1.12,3c.41,1.17.62,2.39.92,3.59.17.71.36,1.42.56,2.12a25.53,25.53,0,0,0,1.16,3.35.32.32,0,0,0,.08.12c.23.16,1.29-.51,1.53-.64a18.12,18.12,0,0,0,2.55-1.53,7.83,7.83,0,0,0,1.68-2c.34-.47.65-.94.94-1.42s.61-.91.15-1.2Z" transform="translate(-7.04 -13.43)"/><path class="cls-5" d="M41.4,87.8c-.22-.88-.47-1.75-.68-2.63s-.42-1.76-.65-2.64c-.45-1.76-1.07-3.46-1.57-5.21-.24-.86-.46-1.74-.74-2.58-.15-.46-.31-.91-.47-1.36-.07-.23-.15-.46-.22-.69a1.81,1.81,0,0,0-.19-.61,1,1,0,0,0-.19-.16,5.39,5.39,0,0,0-1.78-.66A14,14,0,0,0,33,71c-.64,0-1.28,0-1.92-.08l-.18,0a11.94,11.94,0,0,0-1.39-.92.27.27,0,0,0-.37,0,10.63,10.63,0,0,1-3.3,2.29,4.6,4.6,0,0,1-2.44.22,13.39,13.39,0,0,1-1.5-.42,5.47,5.47,0,0,0-.8-.19c-.2,0-.49-.19-.69-.12a.23.23,0,0,0-.11.07A9.62,9.62,0,0,0,18.9,73.3l-.32.18c-1.61.86-3.71,1.67-4.76,3.25a.25.25,0,0,0,0,.18,4.14,4.14,0,0,0,.14,1.2c.05.53.07,1.06.12,1.59.09.89.24,1.78.36,2.66.34,2.47.56,4.94,1,7.4A75.47,75.47,0,0,0,17,97.21c.33,1.23.7,2.44,1.11,3.65s.84,2.19,1.11,3.34c.07.29,2.35-.08,2.76,0a31.75,31.75,0,0,0,5.85.21,32.73,32.73,0,0,0,4.4-.69c1.4-.31,2.8-.57,4.16-1a21.59,21.59,0,0,0,4.15-1.77c.2-.11,2.4-1.3,2.33-1.66a24.83,24.83,0,0,1-.27-3c-.07-1-.19-2-.33-3A46.85,46.85,0,0,0,41.4,87.8Z" transform="translate(-7.04 -13.43)"/><path class="cls-5" d="M26.23,104.48A42.65,42.65,0,0,1,22,104.2a6.15,6.15,0,0,0-.9.06c-1.08.1-1.84.15-1.89-.05a18.14,18.14,0,0,0-.72-2.23l-.4-1.11c-.39-1.19-.77-2.42-1.1-3.65a74.58,74.58,0,0,1-1.63-7.45c-.25-1.52-.43-3.07-.61-4.57-.11-.93-.22-1.89-.35-2.83,0-.29-.08-.58-.13-.87-.08-.58-.17-1.19-.23-1.79,0-.27,0-.55-.06-.82s0-.52-.07-.78c0-.11,0-.25-.06-.39a2.11,2.11,0,0,1-.07-.81.25.25,0,0,1,.05-.2,9.54,9.54,0,0,1,3.83-2.78l.94-.48.16-.09a.53.53,0,0,1,.15-.08,10,10,0,0,1,1.37-1.56.37.37,0,0,1,.12-.07.89.89,0,0,1,.5.06,1.66,1.66,0,0,0,.21.06,4.73,4.73,0,0,1,.8.19l.37.12a8.92,8.92,0,0,0,1.13.29,4.46,4.46,0,0,0,2.42-.21,10.76,10.76,0,0,0,3.29-2.28.3.3,0,0,1,.41,0l.25.15a10.72,10.72,0,0,1,1.13.77l.17,0,1,0,.93,0a13.53,13.53,0,0,1,1.94.31,5.2,5.2,0,0,1,1.78.66,1.06,1.06,0,0,1,.2.17,1,1,0,0,1,.16.44c0,.06,0,.13,0,.18s.13.42.23.69l.19.57c.09.26.19.52.27.79.19.57.36,1.16.51,1.74.08.27.15.56.23.84.21.73.45,1.47.68,2.19.31,1,.63,2,.89,3,.16.6.31,1.22.45,1.81.06.28.13.55.2.83.11.47.24,1,.36,1.4s.22.82.32,1.23a36.89,36.89,0,0,1,.75,4.53l.12.9c.12,1,.25,2,.32,3.06,0,.2,0,.41,0,.62a18.72,18.72,0,0,0,.23,2.34c0,.24-.69.78-2.26,1.65l-.09,0a21.63,21.63,0,0,1-4.15,1.78c-1.07.34-2.19.58-3.26.81l-.9.19a32,32,0,0,1-4.41.7Q27,104.48,26.23,104.48Zm-4.34-.35H22a31.32,31.32,0,0,0,5.84.22,33.16,33.16,0,0,0,4.39-.69l.9-.2a31.66,31.66,0,0,0,3.26-.81,20.92,20.92,0,0,0,4.14-1.77l.09,0c2.06-1.14,2.24-1.48,2.23-1.58a18.91,18.91,0,0,1-.24-2.35c0-.21,0-.41,0-.62-.07-1-.19-2.07-.32-3,0-.3-.07-.6-.11-.9a39.25,39.25,0,0,0-.75-4.53c-.1-.4-.21-.82-.32-1.22s-.25-.93-.37-1.4c-.06-.28-.13-.56-.2-.83-.14-.6-.29-1.21-.44-1.81-.26-1-.58-2-.9-3-.23-.72-.46-1.46-.67-2.19-.08-.28-.16-.57-.23-.85-.16-.57-.32-1.16-.51-1.73L37.46,74l-.2-.57c-.09-.27-.16-.49-.22-.69a1.06,1.06,0,0,1,0-.19,1.17,1.17,0,0,0-.15-.41.9.9,0,0,0-.18-.15,5.37,5.37,0,0,0-1.77-.66A13.18,13.18,0,0,0,33,71c-.31,0-.62,0-.92,0s-.67,0-1,0l-.18,0h0a8.76,8.76,0,0,0-1.14-.77L29.46,70h0a.23.23,0,0,0-.32,0,11.21,11.21,0,0,1-3.31,2.3,4.7,4.7,0,0,1-2.46.21,10.59,10.59,0,0,1-1.14-.3L21.86,72a7.92,7.92,0,0,0-.79-.19.9.9,0,0,1-.22-.06.84.84,0,0,0-.46,0,.14.14,0,0,0-.1,0,9.82,9.82,0,0,0-1.36,1.55h0l-.15.09-.16.09-.94.48a9.43,9.43,0,0,0-3.81,2.76.22.22,0,0,0,0,.16h0a1.83,1.83,0,0,0,.06.79,3.38,3.38,0,0,1,.07.4l.06.78c0,.26,0,.54.07.81.05.6.14,1.21.23,1.79,0,.29.09.58.13.87.12.94.24,1.9.35,2.83.17,1.5.36,3,.61,4.57A73.76,73.76,0,0,0,17,97.2c.34,1.23.71,2.46,1.11,3.65.12.37.26.74.39,1.1a19.47,19.47,0,0,1,.72,2.24c0,.17,1.16.06,1.82,0C21.41,104.16,21.71,104.13,21.89,104.13Z" transform="translate(-7.04 -13.43)"/><path class="cls-3" d="M28.8,70.56a29.75,29.75,0,0,1-.27,7.24c-.3,1.83-.73,3.65-1.11,5.46L27,85.38A3.78,3.78,0,0,0,27,87c.45,2.33,1.09,4.63,1.61,7q1.07,4.72,2,9.49c.09.5.86.29.77-.22q-.78-4.22-1.71-8.39c-.53-2.44-1.16-4.86-1.7-7.3-.09-.42-.18-.84-.24-1.27,0-.11,0-.22,0-.33s0,0,0,0a.36.36,0,0,1,0-.11l.39-1.86c.37-1.76.77-3.53,1.1-5.3a31.48,31.48,0,0,0,.4-8c0-.51-.84-.51-.8,0Z" transform="translate(-7.04 -13.43)"/><path class="cls-3" d="M19.73,72.73a32.37,32.37,0,0,0,2.58,5.21c1.17,2,2.45,4,3.77,5.93A15.58,15.58,0,0,1,27,85.2c.24.46.93.06.69-.4A11.21,11.21,0,0,0,27,83.73c-.56-.81-1.1-1.63-1.64-2.45A68.21,68.21,0,0,1,21.63,75a20.65,20.65,0,0,1-1.13-2.49c-.16-.48-.94-.27-.77.22Z" transform="translate(-7.04 -13.43)"/><path class="cls-3" d="M30.79,71.64a13,13,0,0,1,2,1.71c.05.05.1.14.15.17s0,0,0,0,0-.45.1-.42c-.06,0-.4.21-.46.24a11.57,11.57,0,0,1-1.39.51.4.4,0,0,0,.21.77A11.79,11.79,0,0,0,33.13,74c.38-.18.79-.45.48-.91a5.9,5.9,0,0,0-1-1,16.52,16.52,0,0,0-1.4-1.1c-.42-.3-.82.4-.4.69Z" transform="translate(-7.04 -13.43)"/><path class="cls-3" d="M31.09,74.65c.05,0,0,0,0,0l.13.11q.17.14.33.3c.24.22.47.45.7.7a3.58,3.58,0,0,1,.26.29.22.22,0,0,0,0,.06l0,0a.9.9,0,0,1,0-.18c0-.11,0,0,0,0s0-.07,0,0c-.33.65-.7,1.27-1.06,1.9q-1.71,3-3.5,5.92a19.22,19.22,0,0,1-1,1.67c-.31.41.38.81.69.4a16.66,16.66,0,0,0,.9-1.45c.6-1,1.2-2,1.79-3s1.24-2.09,1.84-3.14c.37-.64.77-1.27,1.08-1.94.19-.42,0-.68-.3-1A8.87,8.87,0,0,0,31.49,74c-.42-.3-.82.39-.4.69Z" transform="translate(-7.04 -13.43)"/><path class="cls-3" d="M18.4,73.69a15.22,15.22,0,0,0-1.21,2.74.4.4,0,0,0,.28.49,16,16,0,0,0,2.59.36c.5.09.72-.68.21-.77a11.91,11.91,0,0,0-1.2-.14,5.45,5.45,0,0,1-1.39-.22l.28.49a14.05,14.05,0,0,1,1.13-2.54c.28-.44-.41-.84-.69-.41Z" transform="translate(-7.04 -13.43)"/><path class="cls-3" d="M19.78,76.79l-.08.15-.18.28c-.13.21-.27.41-.41.62a8,8,0,0,0-.64,1,.42.42,0,0,0,.06.49c.93.76,1.84,1.49,2.82,2.18.66.48,1.3,1,1.95,1.48,1.23.93,2.48,1.85,3.73,2.75.42.3.82-.39.4-.69-1.23-.89-2.46-1.79-3.67-2.71-.61-.46-1.2-.94-1.83-1.39-1-.7-1.9-1.43-2.83-2.19l.06.49c.36-.8,1.06-1.42,1.39-2.24.2-.48-.58-.68-.77-.21Z" transform="translate(-7.04 -13.43)"/><path class="cls-6" d="M29.29,86.24a.5.5,0,0,0-.9-.1.54.54,0,0,0,.14.77.55.55,0,0,0,.54.06.54.54,0,0,0,.28-.49A.48.48,0,0,0,29.29,86.24Z" transform="translate(-7.04 -13.43)"/><path class="cls-6" d="M30.41,90.72a.57.57,0,0,0-.34-.14.54.54,0,0,0-.56.26.59.59,0,0,0,0,.59.58.58,0,0,0,.83.12.63.63,0,0,0,.21-.42A.49.49,0,0,0,30.41,90.72Z" transform="translate(-7.04 -13.43)"/><path class="cls-6" d="M31.65,95.35a.4.4,0,0,0-.27-.32.67.67,0,0,0-.79.37.41.41,0,0,0,0,.27.46.46,0,0,0,.31.37.62.62,0,0,0,.57-.12A.59.59,0,0,0,31.65,95.35Z" transform="translate(-7.04 -13.43)"/><path class="cls-6" d="M32.74,100.17a.54.54,0,0,0-.82-.14.63.63,0,0,0-.18.47.48.48,0,0,0,.54.45.57.57,0,0,0,.48-.72A.14.14,0,0,1,32.74,100.17Z" transform="translate(-7.04 -13.43)"/><path class="cls-3" d="M12,80.68c.4.78.91,1.49,1.29,2.28a18.72,18.72,0,0,1,.94,2.53,22.11,22.11,0,0,1,.89,5.24c0,.51.83.52.8,0A23.63,23.63,0,0,0,15,85.27,20.91,20.91,0,0,0,14,82.73c-.39-.86-.94-1.62-1.37-2.46-.23-.46-.92,0-.69.41Z" transform="translate(-7.04 -13.43)"/><path class="cls-3" d="M39.48,74.12a13,13,0,0,0,0,5.63c.16.94.34,1.87.53,2.81s.32,1.93.57,2.87a.4.4,0,0,0,.77-.22c-.23-.87-.36-1.78-.53-2.68s-.37-1.82-.52-2.73a12.58,12.58,0,0,1-.09-5.46.4.4,0,0,0-.77-.22Z" transform="translate(-7.04 -13.43)"/><path class="cls-5" d="M60.83,32.86v0a7.64,7.64,0,0,0-.09-1.21A12,12,0,0,0,60,28.79c-.55-1.41-1.34-2.67-1.77-4.14-.76-2.59-1-5.27-2.14-7.69-.42-.89-1.08-1.88-2-2a3.07,3.07,0,0,0-2.66,1.09,6.05,6.05,0,0,0-1,3.89,34.55,34.55,0,0,0,1,8A38.47,38.47,0,0,0,53,33.27a15.08,15.08,0,0,0,.91,2l.11.2a7,7,0,0,0,1.65,2,4,4,0,0,0,2,.82C60.07,38.42,60.86,35.31,60.83,32.86Z" transform="translate(-7.04 -13.43)"/><path class="cls-4" d="M61.23,32.86A13.87,13.87,0,0,0,59.61,27a16.66,16.66,0,0,1-1.14-2.87c-.28-1-.49-2.06-.71-3.1a13.72,13.72,0,0,0-2.09-5.51,2.42,2.42,0,0,0-2-1,3.4,3.4,0,0,0-2.21.93C50.17,16.57,50,18.5,50,20.26a34.4,34.4,0,0,0,.78,6.8,40.05,40.05,0,0,0,1.88,6.44c.72,1.82,1.72,3.71,3.3,4.62,1.38.79,3.08.85,4.13-.63a8.2,8.2,0,0,0,1.13-4.63.4.4,0,1,0-.79,0,8,8,0,0,1-.73,3.67,2.13,2.13,0,0,1-2.91,1c-1.51-.61-2.49-2.25-3.18-3.87A35.09,35.09,0,0,1,51.82,28a36.17,36.17,0,0,1-1-6.14c-.09-1.58-.26-3.6.52-5s2.56-2,3.59-.82a6.58,6.58,0,0,1,1.15,2.14,20.26,20.26,0,0,1,.78,2.72c.23,1,.43,2.07.69,3.1a15.8,15.8,0,0,0,1,2.89,14.6,14.6,0,0,1,1.8,6A.4.4,0,1,0,61.23,32.86Z" transform="translate(-7.04 -13.43)"/><path class="cls-4" d="M60.83,32.86v0h0a11.8,11.8,0,0,0-4,1,13.83,13.83,0,0,0-1.6.77c-.26.15-.51.3-.76.47a1.21,1.21,0,0,0-.3.22s-.05.1-.09.16a7,7,0,0,0,1.65,2,4,4,0,0,0,2,.82C60.07,38.42,60.86,35.31,60.83,32.86Z" transform="translate(-7.04 -13.43)"/><path class="cls-3" d="M54.29,35.82c1,1.37,2.55,2.73,4.21,2.36,1.83-.41,2.34-3,2.38-4.88a.4.4,0,1,0-.8,0c0,1.44-.37,3.8-1.9,4-1.33.17-2.51-1-3.33-2.13-.34-.45-.9.21-.56.66Z" transform="translate(-7.04 -13.43)"/><path class="cls-5" d="M79.72,27.6a6,6,0,0,0-.3-.56c-.22-.38-.46-.74-.72-1.11a18.94,18.94,0,0,0-2-2.34l-.4-.4-.4-.39a56.27,56.27,0,0,0-4.35-3.87,15.59,15.59,0,0,0-4.68-2.78,3.34,3.34,0,0,0-4.49,2.59,3.68,3.68,0,0,0,.84,3.17,16.58,16.58,0,0,0,3.28,2.61,18.44,18.44,0,0,1,3.67,3.61A15.34,15.34,0,0,0,73.91,32l.17.09c1.48.84,3.89,1.51,5.31.31S80.49,29.19,79.72,27.6Z" transform="translate(-7.04 -13.43)"/><path class="cls-4" d="M80.07,27.37a18.81,18.81,0,0,0-4-5,55.7,55.7,0,0,0-4.72-4.14,12,12,0,0,0-4.87-2.65,3.79,3.79,0,0,0-3.67,1.2,4.42,4.42,0,0,0-.29,4.9c1,1.69,2.83,2.5,4.27,3.62a26.69,26.69,0,0,1,4.07,4.4A10.14,10.14,0,0,0,75,33c1.51.6,3.47.9,4.8-.35s1.13-3.59.32-5.27c-.25-.53-.94-.06-.69.47.61,1.27,1,3-.11,4.06s-2.65.71-3.83.29a8.58,8.58,0,0,1-3.68-2.78,41.32,41.32,0,0,0-3.51-4,18.31,18.31,0,0,0-2.11-1.66,17.12,17.12,0,0,1-2-1.51,3.84,3.84,0,0,1-1.34-2.15,3.45,3.45,0,0,1,.34-2.19,2.92,2.92,0,0,1,3-1.4c1.58.14,3.08,1.23,4.39,2.2a48.61,48.61,0,0,1,4.78,4.1,18.86,18.86,0,0,1,4.13,5.08C79.64,28.36,80.33,27.89,80.07,27.37Z" transform="translate(-7.04 -13.43)"/><path class="cls-4" d="M79.72,27.6a6,6,0,0,0-.3-.56c-.22-.38-.46-.74-.72-1.11a14,14,0,0,0-2.6,2.66,13.21,13.21,0,0,0-2,3.48c1.48.84,3.89,1.51,5.31.31S80.49,29.19,79.72,27.6Z" transform="translate(-7.04 -13.43)"/><path class="cls-3" d="M78.34,26.78c.84,1.24,2.07,4.1.35,5.09a3,3,0,0,1-1.76.28,6.73,6.73,0,0,1-2.22-.86c-.48-.23-.68.68-.21.9a9.55,9.55,0,0,0,1.55.74,5.14,5.14,0,0,0,1.11.18,3.28,3.28,0,0,0,2.17-.6c1.94-1.52.69-4.74-.42-6.39-.32-.48-.88.19-.57.66Z" transform="translate(-7.04 -13.43)"/><path class="cls-3" d="M57,22.93c-.11-.39-.23-.78-.33-1.19-.24-1-.48-2-.79-3a5.44,5.44,0,0,0-1.14-2.2,2.45,2.45,0,0,0-.89-.58,1.64,1.64,0,0,0-1.69.62,6.47,6.47,0,0,0-1,4.55,24.07,24.07,0,0,0,.41,2.68A6,6,0,0,0,52,25.16c.15.32.45.69.79.58a.53.53,0,0,0,.32-.27,2.22,2.22,0,0,0,.13-.31,1.54,1.54,0,0,1,.84-.92c.18-.09.35-.16.53-.23a1.56,1.56,0,0,1,2,.59.33.33,0,0,0,.59-.07.92.92,0,0,0,0-.29A6.28,6.28,0,0,0,57,22.93Z" transform="translate(-7.04 -13.43)"/><path class="cls-3" d="M72.56,20.69c-.18-.55-.72-.83-1.11-1.13s-1-.74-1.46-1.08a11.46,11.46,0,0,0-2.43-1.37,3.44,3.44,0,0,0-3.64.44,2.57,2.57,0,0,0-.21.24,2.86,2.86,0,0,0-.28,2.52,4.52,4.52,0,0,0,2.25,2.13,16.61,16.61,0,0,1,2,1.51c.38.33.82.81,1.32.83s.46-.45.5-.92a3.93,3.93,0,0,1,.37-1.46,2.31,2.31,0,0,1,1.73-1.34C71.82,21,72.75,21.27,72.56,20.69Z" transform="translate(-7.04 -13.43)"/><path class="cls-3" d="M52.65,26.29c.35,1.31.85,2.57,1.28,3.85a7.23,7.23,0,0,1,.52,2.26,2,2,0,0,1-.28.88c-.17.31-.32.66-.51,1a.51.51,0,0,0,.14.64c.2.14.41,0,.55-.17a9.66,9.66,0,0,0,.5-1,3.06,3.06,0,0,0,.37-1,5.8,5.8,0,0,0-.39-2.48c-.45-1.43-1-2.8-1.41-4.25-.15-.57-.92-.33-.77.25Z" transform="translate(-7.04 -13.43)"/><path class="cls-3" d="M56.31,25.4c.16.69.39,1.35.6,2,.25.83.34,1.72.59,2.55a3.91,3.91,0,0,0,.84,1.83,6.9,6.9,0,0,0,1.59.88c.46.25.87-.55.4-.81a7.67,7.67,0,0,1-1.42-.74,3.47,3.47,0,0,1-.75-1.82c-.18-.75-.29-1.51-.52-2.24s-.41-1.27-.57-1.93-.9-.33-.76.25Z" transform="translate(-7.04 -13.43)"/><path class="cls-3" d="M72,22.32c.45.51.94.95,1.39,1.46a19.59,19.59,0,0,0,1.4,1.48,3.35,3.35,0,0,0,1.44,1A3,3,0,0,0,77.89,26c.49-.18.28-1.09-.21-.9a2.19,2.19,0,0,1-1.35.19A4.23,4.23,0,0,1,75,24.24c-.41-.4-.77-.85-1.16-1.28s-.85-.84-1.25-1.3-.94.24-.57.66Z" transform="translate(-7.04 -13.43)"/><path class="cls-3" d="M69.72,25.12c.44.5,1,.89,1.44,1.37s1,1,1.49,1.46c.21.19.42.4.64.59s.37.28.38.57a15,15,0,0,1-.16,2.12.44.44,0,0,0,.39.47c.24,0,.37-.22.4-.47A13,13,0,0,0,74.46,29c0-.71-.53-1-1-1.43s-1.11-1-1.64-1.57c-.27-.29-.54-.57-.83-.83a7,7,0,0,1-.74-.7c-.37-.42-.93.24-.57.67Z" transform="translate(-7.04 -13.43)"/><path class="cls-7" d="M54.43,32.13a4.3,4.3,0,0,1,2-1.24,2.92,2.92,0,0,1,2-.18l.21-.9,0,0c-.49-.17-.7.73-.21.91h0c.5.18.68-.69.21-.9a3.55,3.55,0,0,0-2.46.18,5.11,5.11,0,0,0-2.33,1.48c-.36.43.2,1.09.57.66Z" transform="translate(-7.04 -13.43)"/><path class="cls-7" d="M53.76,30.11a4.59,4.59,0,0,1,2.16-1.39,5.7,5.7,0,0,1,2-.29c.51,0,.51-.9,0-.93a6,6,0,0,0-2.36.35,5.42,5.42,0,0,0-2.41,1.6c-.35.44.21,1.1.57.66Z" transform="translate(-7.04 -13.43)"/><path class="cls-7" d="M53,28a4,4,0,0,1,2-1.12,5.14,5.14,0,0,1,2.5-.38c.5.06.5-.87,0-.94a5.79,5.79,0,0,0-2.81.45,4.68,4.68,0,0,0-2.24,1.32c-.34.45.23,1.12.57.67Z" transform="translate(-7.04 -13.43)"/><path class="cls-7" d="M73.49,28.84a4.93,4.93,0,0,1,2.72-3.74c.46-.25.06-1.06-.41-.81a5.87,5.87,0,0,0-3.11,4.55c-.06.59.74.59.8,0Z" transform="translate(-7.04 -13.43)"/><path class="cls-7" d="M72.07,27.81a5.19,5.19,0,0,1,1-2.58,4.23,4.23,0,0,1,2-1.52c.5-.11.29-1-.22-.91a3.22,3.22,0,0,0-1.21.67,6.57,6.57,0,0,0-1.14,1.1,6.07,6.07,0,0,0-1.18,3c-.1.59.67.85.77.25Z" transform="translate(-7.04 -13.43)"/><path class="cls-7" d="M70.54,26.12a5.69,5.69,0,0,1,1.14-2.06,8,8,0,0,1,1.83-1.62c.44-.31,0-1.12-.4-.81A8.72,8.72,0,0,0,71,23.5a6.61,6.61,0,0,0-1.27,2.37c-.14.58.63.83.77.25Z" transform="translate(-7.04 -13.43)"/><path class="cls-3" d="M56.87,53c.42-.18.94-.42,1.37-.58a10.1,10.1,0,0,1,1.33-.5,6.81,6.81,0,0,1,1.55-.27,12.23,12.23,0,0,1,1.47.16c2,.31,3.74,1.1,5.69,1.58.49.12,1,.25,1.47.34l.45.07c.19,0,.4.21.59.21s.55-.69.43-.89a1.13,1.13,0,0,0-.78-.35l-1.1-.22c-2.13-.5-4.26-.94-6.41-1.3a9.06,9.06,0,0,0-2.8,0,15.67,15.67,0,0,0-3.35,1C56.21,52.42,56.21,53.27,56.87,53Z" transform="translate(-7.04 -13.43)"/><path class="cls-3" d="M45.36,57.83c.3-.14.58-.36.89-.48a5.73,5.73,0,0,1,1-.29,3.87,3.87,0,0,1,2.06.35c1.46.51,3,1.66,4.44,2.34a31.5,31.5,0,0,0,3.51,1.46c.3.07.07-1.1-.2-1.24-.54-.27-2.48-1-3-1.26-.75-.35-1.52-.6-2.26-1s-1.5-.67-2.26-.94a4.6,4.6,0,0,0-2.2-.38,5.42,5.42,0,0,0-1.18.26c-.37.14-.71.23-1.07.39s-.33,1.12.29.74Z" transform="translate(-7.04 -13.43)"/><path class="cls-2" d="M70.68,54.91a1.42,1.42,0,0,0-.35-.85c-.55-.48-1.83.15-2.35.41a3.9,3.9,0,0,0-1.87,2.77c-.07,1,.24,1.53,1.21,1.55a3,3,0,0,0,2.28-.9,4.11,4.11,0,0,0,1.11-2.75Z" transform="translate(-7.04 -13.43)"/><path class="cls-2" d="M65,58.75c-.39-1.17-2.46-1.16-3.52-1a7.64,7.64,0,0,0-2.84,1.06c-.58.46-1.3,1.13-.73,1.83a4.18,4.18,0,0,0,6.6-.1A2,2,0,0,0,65,58.75Z" transform="translate(-7.04 -13.43)"/><path class="cls-3" d="M65.28,58.72l0,0s0,0,0,0c-.4-1-1.67-1.25-2.69-1.24h-.75a8.47,8.47,0,0,0-1.93.27,11.92,11.92,0,0,0-1.92.7c-.39.18-2.12.81-1.76,1.49a5.21,5.21,0,0,0,2.66,2.45,6.37,6.37,0,0,0,1.84.34,5.45,5.45,0,0,0,1.61-.23l.18,0,.1,0,0,0h0a4.13,4.13,0,0,0,1.83-1.24A2.7,2.7,0,0,0,65.28,58.72Zm-1.16,1.87a3.88,3.88,0,0,1-1.32,1,2.39,2.39,0,0,1-.37.15l-.29.08a4,4,0,0,1-2.45-.19,3.91,3.91,0,0,1-1.34-.9c-.2-.2-.44-.44-.35-.75a1.82,1.82,0,0,1,.6-.75,4.66,4.66,0,0,1,1.61-.83A7.36,7.36,0,0,1,62.72,58c.65,0,1.71.06,2,.8A2,2,0,0,1,64.12,60.59Z" transform="translate(-7.04 -13.43)"/><path class="cls-3" d="M71.43,52.91c-.05-.26-.26-.38-.57-.3a8.55,8.55,0,0,0-2.46,1.17,5.82,5.82,0,0,0-2,1.85l0,.08-.1.17a3.34,3.34,0,0,0-.43,1.63,1.62,1.62,0,0,0,.41,1.2,1.79,1.79,0,0,0,1.34.38c2.21-.1,3.38-2.21,3.72-4.17A10.76,10.76,0,0,0,71.44,53,.57.57,0,0,0,71.43,52.91Zm-2,4.72a2.64,2.64,0,0,1-1.32.79,2.26,2.26,0,0,1-1.29,0c-.67-.3-.42-1.43-.21-1.93a3.61,3.61,0,0,1,1.77-1.88,4.15,4.15,0,0,1,1.23-.41.72.72,0,0,1,.5.07,1.07,1.07,0,0,1,.28.67,3.21,3.21,0,0,1-.21,1.5c-.08.17-.16.34-.25.5a.14.14,0,0,0,0,.06A4.28,4.28,0,0,1,69.43,57.63Z" transform="translate(-7.04 -13.43)"/><path class="cls-3" d="M66.59,58.25c-.17-.1-.3-.26-.49-.35s-.06-.1-.15-.1a1.74,1.74,0,0,0,.54-1c.1-.37-.48-.53-.57-.16a1.31,1.31,0,0,1-.93,1,4.07,4.07,0,0,1-1.34-.12c-.38,0-.38.56,0,.59s.51.12.77.15a1.77,1.77,0,0,0,.56,0,1.1,1.1,0,0,0-.2.6c-.06.37.52.53.58.16s.1-.52.34-.59.41.21.59.32A.3.3,0,0,0,66.59,58.25Z" transform="translate(-7.04 -13.43)"/><path class="cls-2" d="M82.65,104a6,6,0,0,0,.12-.72c.13-1,.27-2,.33-2.93.21-3.06.46-5.59.69-8.65.32-4.27.68-9.19,0-13.43-.13-.8-.31-1.59-.46-2.38-.08-.41-.14-.82-.19-1.23-.08-.59,0-.7-.51-.64a14,14,0,0,1-2.5-.12c-.92-.08-1.84-.17-2.76-.32q-.93-.15-1.86-.33c-.56-.11-1.1-.31-1.67-.4-.13,0-.17.15-.2.24a4.29,4.29,0,0,1-.19.5c-.14.33-.29.65-.45,1l-.48,1c-2.93,6.29-4.19,12.89-5.17,19.7-.15,1-.32,2-.51,2.93s-.32,1.94-.45,2.92c0,.23-.06.47-.1.71s.5.32.66.37c1.07.29,2.15.52,3.24.71a14.31,14.31,0,0,0,3.12.38c.07,0,.18,0,.21-.08a1.89,1.89,0,0,0,.13-.52,2.2,2.2,0,0,1,0-.37l.8.13.43,0h.34c0,.26,0,.52,0,.78s.37.26.52.3c.42.1.85.17,1.27.23a37.34,37.34,0,0,0,4.73.33c.22,0,.45,0,.67,0S82.61,104.15,82.65,104Z" transform="translate(-7.04 -13.43)"/><path class="cls-3" d="M81.6,75.67a8.56,8.56,0,0,0,1.34,0,.19.19,0,0,0,0-.38,8.54,8.54,0,0,1-1.24,0c-.24,0-.29.36-.05.37Z" transform="translate(-7.04 -13.43)"/><path class="cls-3" d="M75.67,74.91c1.67.28,3.34.57,5,.7.24,0,.29-.35,0-.37-1.69-.13-3.36-.43-5-.7a.19.19,0,0,0,0,.37Z" transform="translate(-7.04 -13.43)"/><path class="cls-3" d="M73.42,74.35a5.15,5.15,0,0,0,1.45.42c.24,0,.28-.33,0-.38A5.1,5.1,0,0,1,73.57,74c-.22-.12-.36.23-.15.34Z" transform="translate(-7.04 -13.43)"/><path class="cls-3" d="M75,73.42c0,.22-.11.45-.16.68l-.15.68a1.07,1.07,0,0,0-.06.58c.08.2.34.19.51.24s.36.13.51,0,.14-.38.18-.55.11-.46.16-.7a5,5,0,0,1,.14-.67c.08-.23-.27-.38-.35-.15a8.71,8.71,0,0,0-.22,1l-.12.51s-.06.26-.06.26.06,0,0,0l0,0-.14,0a.82.82,0,0,0-.25-.06s0,0,0,0,0,0,0,0,0-.1,0-.12c0-.18.07-.36.11-.54l.12-.54c0-.17.1-.35.13-.53a.19.19,0,0,0-.38,0Z" transform="translate(-7.04 -13.43)"/><path class="cls-4" d="M78.59,74.29a.4.4,0,0,0-.49-.24.42.42,0,0,0-.24.37.39.39,0,0,0,.29.35.35.35,0,0,0,.38-.13A.37.37,0,0,0,78.59,74.29Z" transform="translate(-7.04 -13.43)"/><path class="cls-3" d="M77.37,73.9c-.07.52-.15,1-.23,1.55s-.14,1.16-.2,1.74c-.13,1.2-.3,2.39-.45,3.58a.19.19,0,0,0,.37,0c.16-1.19.33-2.38.45-3.58.06-.57.11-1.14.2-1.71s.17-1,.24-1.58a.19.19,0,0,0-.38,0Z" transform="translate(-7.04 -13.43)"/><path class="cls-3" d="M78.81,74.07c-.14,1.07-.25,2.14-.37,3.21-.06.53-.13,1-.21,1.58,0,.27-.07.54-.11.81a2.52,2.52,0,0,1-.16.67.55.55,0,0,1-.51.35,1.51,1.51,0,0,1-.3,0,2.19,2.19,0,0,1-.36,0c-.23-.08-.38.27-.15.35a2.9,2.9,0,0,0,.66.07,1.08,1.08,0,0,0,.61-.12,1.58,1.58,0,0,0,.59-1.26c.18-1.18.32-2.37.45-3.56q.1-1,.24-2a.19.19,0,0,0-.38-.05Z" transform="translate(-7.04 -13.43)"/><path class="cls-3" d="M80.55,74.26c0,.25,0,.5,0,.74s0,.46,0,.69,0,.44.12.58a.76.76,0,0,0,.45.12.67.67,0,0,0,.53-.15,1,1,0,0,0,.1-.58c0-.23,0-.46,0-.69a4.53,4.53,0,0,0,0-.73.19.19,0,0,0-.37.06c.05.35,0,.71.05,1.06a2.54,2.54,0,0,1,0,.55s0,.08,0,.1,0,0,0,0a.89.89,0,0,1-.23,0s-.12,0-.15,0,0-.06,0-.1,0-.38,0-.57c0-.37,0-.74,0-1.11s-.39-.19-.37.05Z" transform="translate(-7.04 -13.43)"/><path class="cls-3" d="M72.14,77.52c.47-.36.9-.77,1.33-1.17a3.78,3.78,0,0,0,.57-.63,6.54,6.54,0,0,0,.48-.69c.11-.22-.23-.36-.35-.15a4.3,4.3,0,0,1-.47.65,3.35,3.35,0,0,1-.54.59c-.41.37-.81.76-1.25,1.1-.19.15,0,.45.23.3Z" transform="translate(-7.04 -13.43)"/><path class="cls-3" d="M81.83,76a9.41,9.41,0,0,0,.73,1.66,4.37,4.37,0,0,0,1,1.4c.19.16.42-.14.24-.3a3.92,3.92,0,0,1-.87-1.29A8.43,8.43,0,0,1,82.2,76c-.06-.23-.43-.18-.37.06Z" transform="translate(-7.04 -13.43)"/><path class="cls-3" d="M76,75.22c-.14,1-.35,2-.54,2.93s-.33,2-.5,2.95S74.56,83,74.44,84c0,.25,0,.73-.23.89a.89.89,0,0,1-.48.08c-.27,0-.54,0-.81,0-.55,0-1.1,0-1.65-.08s-1.11-.15-1.66-.21a.19.19,0,1,0,0,.37l1.53.2c.52.06,1,.08,1.57.09h.76a4.66,4.66,0,0,0,.65,0,.81.81,0,0,0,.69-.72c0-.17,0-.35.06-.52s.07-.46.11-.69c.09-.52.19-1,.29-1.55.19-1,.31-2,.5-3.07s.49-2.31.65-3.48a.19.19,0,1,0-.37,0Z" transform="translate(-7.04 -13.43)"/><path class="cls-3" d="M80,75.82a29.24,29.24,0,0,0-.31,3.11l-.27,3.16c-.07.91-.14,1.82-.15,2.74a1.45,1.45,0,0,0,.14.85c.22.33.72.43,1.07.55a21.91,21.91,0,0,0,3.31.71.19.19,0,0,0,0-.38A22.17,22.17,0,0,1,81,86c-.23-.06-.45-.14-.68-.22a1.61,1.61,0,0,1-.57-.24c-.18-.16-.13-.49-.13-.71,0-.86.08-1.73.14-2.6s.17-2,.26-3a30.84,30.84,0,0,1,.33-3.32c0-.24-.33-.29-.38-.05Z" transform="translate(-7.04 -13.43)"/><path class="cls-3" d="M76,91.49c-.09.67-.34,1.3-.48,2s-.3,1.39-.47,2.09c-.33,1.39-.67,2.78-1,4.18-.16.77-.37,1.54-.48,2.32a.19.19,0,0,0,.38,0c.09-.7.28-1.38.42-2.08s.3-1.38.46-2.07c.32-1.4.68-2.79,1-4.2.15-.74.42-1.45.52-2.2a.19.19,0,0,0-.37-.05Z" transform="translate(-7.04 -13.43)"/><path class="cls-3" d="M76,91.58a39.05,39.05,0,0,1-.2,4.19c-.13,1.41-.25,2.81-.36,4.22,0,.39-.07.78-.1,1.17a8.32,8.32,0,0,1-.09,1.12c0,.24.33.29.38,0s0-.66.07-1l.09-1c.06-.71.11-1.43.17-2.14.11-1.41.28-2.81.36-4.22,0-.8.06-1.6,0-2.4,0-.24-.37-.19-.37,0Z" transform="translate(-7.04 -13.43)"/></svg>