<svg id="_Layer_" data-name="&lt;Layer&gt;" xmlns="http://www.w3.org/2000/svg" xmlns:xlink="http://www.w3.org/1999/xlink" viewBox="0 0 2416.63 2379.93"><defs><style>.cls-1,.cls-13{fill:none;}.cls-2{fill:#bdc01b;}.cls-3{fill:#84840b;}.cls-4{fill:#a1b6d9;}.cls-5{fill:#7b97bf;}.cls-6{fill:#3358a0;}.cls-7{fill:#4e5fa8;}.cls-8{fill:#f8a774;}.cls-9{fill:#e9f2ff;}.cls-10{fill:#dae6fc;}.cls-11{fill:#fbc29c;}.cls-12,.cls-25{fill:#fff;}.cls-13{stroke:#000;stroke-miterlimit:10;stroke-width:4px;}.cls-14{font-size:638px;}.cls-14,.cls-15{font-family:BlackHanSans-Regular, Black Han Sans;}.cls-15{font-size:192px;}.cls-16{fill:#faaf3f;}.cls-17{clip-path:url(#clip-path);}.cls-18{fill:#dc912c;}.cls-19,.cls-26{fill:#f9d8be;}.cls-20{fill:#515457;}.cls-21{fill:#3b2213;}.cls-22{fill:#ec1b23;}.cls-23{opacity:0.2;}.cls-24{fill:#603811;}.cls-25,.cls-26,.cls-27,.cls-28{fill-rule:evenodd;}.cls-27{fill:#fce5e5;}.cls-28{fill:#dd878b;}.cls-29{fill:#d6eceb;opacity:0.64;}.cls-30{fill:#8c130d;}.cls-31{fill:#b42011;}.cls-32{fill:#9b9d0c;}.cls-33{fill:#d7df40;}</style><clipPath id="clip-path" transform="translate(-58.98 -49.77)"><ellipse class="cls-1" cx="126.92" cy="1548.51" rx="4.86" ry="4.48"/></clipPath></defs><path class="cls-2" d="M394.91,1361.81c-57.34,34.85-145.38,5.56-256.48,79-124.94,82.54-84.52,202-2,272.39s221.24,154.29,433.24,189.14S888.39,2096,967.05,2127.79c196.35,79.41,233.43-70.15,352.44-102.61,176-48,210.19-147.26,199.66-215.63-43.92-285-829.33-532.53-849.43-535C459.3,1248.63,456.51,1324.39,394.91,1361.81Z" transform="translate(-58.98 -49.77)"/><path class="cls-2" d="M361.87,1448.65s11.06-140.23-77.59-148.24c0,0,95.58-17.46,95.58,158.95Z" transform="translate(-58.98 -49.77)"/><path class="cls-3" d="M351.44,1442.5s8.86-111.93-61.91-118.33c0,0,76.3-14,76.3,126.89Z" transform="translate(-58.98 -49.77)"/><path class="cls-2" d="M397.89,1448.65s-11.09-140.23,77.56-148.24c0,0-95.59-17.46-95.59,158.95Z" transform="translate(-58.98 -49.77)"/><path class="cls-3" d="M408.27,1442.5s-8.85-111.93,61.93-118.33c0,0-76.3-14-76.3,126.89Z" transform="translate(-58.98 -49.77)"/><path class="cls-3" d="M405.73,1220.45s-67.43,68.82-25.87,238.91l8.32-4.93S354,1314.8,405.73,1220.45Z" transform="translate(-58.98 -49.77)"/><path class="cls-2" d="M439,1251.76s-72.06,71-67.43,202.66l8.31,4.94S390,1309.42,439,1251.76Z" transform="translate(-58.98 -49.77)"/><path class="cls-3" d="M371.55,1454.42s-5.55-102.06,72-89.11c0,0-72,15.41-63.72,94Z" transform="translate(-58.98 -49.77)"/><path class="cls-3" d="M311.51,1375.64s35.58,11.08,39.93,66.86l7.78,4.63S357.69,1376.71,311.51,1375.64Z" transform="translate(-58.98 -49.77)"/><path class="cls-2" d="M956.7,1817.38s69.52-32.84,125.36-6.16S1057.46,1865.24,956.7,1817.38Z" transform="translate(-58.98 -49.77)"/><path class="cls-2" d="M290.61,1437.6s126.23-22.52,174.82,5.06S463.21,1549.59,290.61,1437.6Z" transform="translate(-58.98 -49.77)"/><path class="cls-2" d="M675.58,1674.45S685.1,1553.92,608.9,1547c0,0,82.16-15,82.16,136.63Z" transform="translate(-58.98 -49.77)"/><path class="cls-3" d="M666.64,1669.16s7.6-96.21-53.23-101.7c0,0,65.59-12,65.59,109.07Z" transform="translate(-58.98 -49.77)"/><path class="cls-2" d="M706.54,1674.45S697,1553.92,773.23,1547c0,0-82.17-15-82.17,136.63Z" transform="translate(-58.98 -49.77)"/><path class="cls-3" d="M715.47,1669.16s-7.6-96.21,53.24-101.7c0,0-65.59-12-65.59,109.07Z" transform="translate(-58.98 -49.77)"/><path class="cls-3" d="M713.28,1478.29s-57.94,59.17-22.22,205.37l7.13-4.22S668.84,1559.4,713.28,1478.29Z" transform="translate(-58.98 -49.77)"/><path class="cls-2" d="M741.86,1505.19s-61.93,61.08-57.94,174.23l7.14,4.24S699.8,1554.77,741.86,1505.19Z" transform="translate(-58.98 -49.77)"/><path class="cls-3" d="M683.92,1679.42s-4.78-87.74,61.9-76.63c0,0-61.9,13.28-54.76,80.87Z" transform="translate(-58.98 -49.77)"/><path class="cls-3" d="M632.3,1611.69s30.56,9.52,34.34,57.47l6.68,4S672,1612.63,632.3,1611.69Z" transform="translate(-58.98 -49.77)"/><path class="cls-2" d="M616.33,1670.27s80.08-37.8,144.39-7.08S732.39,1725.41,616.33,1670.27Z" transform="translate(-58.98 -49.77)"/><path class="cls-2" d="M957.21,1499.32s7.89-99.7-55.14-105.39c0,0,67.95-12.43,67.95,113Z" transform="translate(-58.98 -49.77)"/><path class="cls-3" d="M949.8,1495s6.3-79.6-44-84.12c0,0,54.23-9.94,54.23,90.19Z" transform="translate(-58.98 -49.77)"/><path class="cls-2" d="M982.82,1499.32s-7.87-99.7,55.18-105.39c0,0-68-12.43-68,113Z" transform="translate(-58.98 -49.77)"/><path class="cls-3" d="M990.22,1495s-6.3-79.6,44-84.12c0,0-54.24-9.94-54.24,90.19Z" transform="translate(-58.98 -49.77)"/><path class="cls-3" d="M988.39,1337.07S940.48,1386,970,1507l5.91-3.53S951.63,1404.16,988.39,1337.07Z" transform="translate(-58.98 -49.77)"/><path class="cls-2" d="M1012,1359.32s-51.24,50.5-47.95,144.1L970,1507S977.26,1400.33,1012,1359.32Z" transform="translate(-58.98 -49.77)"/><path class="cls-3" d="M964.09,1503.42s-3.93-72.56,51.22-63.37c0,0-51.19,11-45.29,66.9Z" transform="translate(-58.98 -49.77)"/><path class="cls-3" d="M921.39,1447.4s25.31,7.9,28.41,47.55l5.55,3.29S954.24,1448.18,921.39,1447.4Z" transform="translate(-58.98 -49.77)"/><path class="cls-2" d="M908.21,1495.86s66.23-31.27,119.44-5.86S1004.19,1541.45,908.21,1495.86Z" transform="translate(-58.98 -49.77)"/><path class="cls-4" d="M769.33,1574S742,1597,758,1611.58c12.19,11.11,15.54,1.15,35.42,31.64s46.31,31.9,52.37,25.74c8.59-8.71,11.17-24.32-39-73.57Z" transform="translate(-58.98 -49.77)"/><path class="cls-5" d="M758,1611.58c12.19,11.11,15.54,1.15,35.42,31.64s46.31,31.9,52.37,25.74a15.42,15.42,0,0,0,4.86-11.34c-7.68,7.81-23.79,9.3-38.83-8-18.87-21.84-9.56-26.14-36.47-39.55-14-7-16.66-17.07-16-25.18C753.57,1592.79,749.1,1603.46,758,1611.58Z" transform="translate(-58.98 -49.77)"/><path class="cls-6" d="M1040.44,1218.29s-58.35,218.82-81.81,247.13S871.17,1574,826.11,1614.1c-13.61,12.09-79.78-21.82-56.65-54.59,32.79-46.54,110.9-123.86,110.9-123.86s42.89-152.93,91.23-186Z" transform="translate(-58.98 -49.77)"/><path class="cls-4" d="M969.23,1662.61s-21.92,28.86-2.72,39.73c14.51,8.24,15.58-2.41,42.1,23.3s52.93,21.07,57.51,13.65c6.56-10.6,5.56-26.56-55-63.9Z" transform="translate(-58.98 -49.77)"/><path class="cls-5" d="M966.51,1702.34c14.51,8.24,15.58-2.41,42.1,23.3s52.93,21.07,57.51,13.65a15.55,15.55,0,0,0,2.24-12.32c-5.82,9.47-21.41,14.58-40.14.81-23.57-17.27-15.36-23.7-45-30.85-15.38-3.76-20.26-13.12-21.5-21.28C957.82,1684.71,955.88,1696.31,966.51,1702.34Z" transform="translate(-58.98 -49.77)"/><path class="cls-7" d="M1040.44,1218.29l-78.5,78.52s70.52,115.88,72.54,152.6,1.42,163.76-4.45,223.81c-1.78,18.06-68,32.07-73.29-7.68-7.53-56.43,1.89-200.12,1.89-200.12s-152.72-164.58-113.88-247.13C844.75,1218.29,939,1255.88,1040.44,1218.29Z" transform="translate(-58.98 -49.77)"/><path class="cls-8" d="M1031.06,911.61s-36.47-5.29-33.48,38.37,49.11,170.57,49.11,170.57l12,96.06s3.85,64.72,11.09,72.34c16.73,17.47,14-73.41,14.9-86.69,4.61-71.43-8.28-183.35-8.28-183.35S1065.74,916.07,1031.06,911.61Z" transform="translate(-58.98 -49.77)"/><path class="cls-9" d="M995.11,1014.69S969.56,918,1021.18,908.93s55.51,91.39,55.51,91.39S1053.07,1017.25,995.11,1014.69Z" transform="translate(-58.98 -49.77)"/><path class="cls-10" d="M872.08,951.08C888.2,940,1016,896.71,1029,910s38.6,72,16.43,148.56c-16,55.23-2.72,79.38,2.47,159.18,1.22,18.61-99.06,67.13-204.61,10-7.73-4.2-7.73-7.77,10.67-67C889,1048.21,823,984.75,872.08,951.08Z" transform="translate(-58.98 -49.77)"/><path class="cls-8" d="M981.8,884.52s-3.63,32.1,5.08,48S973,957.79,957.28,955c-15.25-2.78-38-15.1-32.69-24.75,10.4-18.6,3.59-44-4.64-55.68S981.8,884.52,981.8,884.52Z" transform="translate(-58.98 -49.77)"/><path class="cls-11" d="M910.74,794.08s-28.23,24.13-14.52,60.77c7.54,20.25,30.89,43.43,45.64,52.65s49.53,33.08,61.1,6.71,20.62-99.69-13.5-128.38S910.74,794.08,910.74,794.08Z" transform="translate(-58.98 -49.77)"/><path d="M993.83,800c-11.67,12.15-29.41,26.81-60.12,30.6s-15.86,13.26-12.49,17.51c2.8,3.56,12,27.4.4,18.2-4.44-3.53-15.31-11.88-17.4-3.25s22.62,27.15,24.1,34.16c1.11,5-56.44-34.36-58.81-74.2S884,757.21,939,752.85c33.19-2.62,37.46,2.94,49.79,9.5C999.84,768.19,1005.94,787.34,993.83,800Z" transform="translate(-58.98 -49.77)"/><path class="cls-8" d="M885,955.09s36.87-.1,27.8,42.72-73.42,158.8-73.42,158.8l-24.61,96.56s-1.76,60.5-10,67c-19,15-14.69-71.53-13.67-84.8,5.46-71.4,34-180.4,34-180.4S850.09,954.64,885,955.09Z" transform="translate(-58.98 -49.77)"/><path class="cls-9" d="M823,1031.62s22.22-97.47,72.19-81.59,6.75,106.68,6.75,106.68S873.16,1060.78,823,1031.62Z" transform="translate(-58.98 -49.77)"/><path class="cls-8" d="M1060.49,1239.71s-6.8,33.32,0,38.75,9-19.37,7.86-23.73S1060.49,1239.71,1060.49,1239.71Z" transform="translate(-58.98 -49.77)"/><ellipse cx="904.55" cy="808.03" rx="8.36" ry="11.35"/><ellipse cx="942.48" cy="786.48" rx="8.36" ry="11.35"/><path class="cls-2" d="M1027.55,1821s8.29-104.67-57.89-110.65c0,0,71.34-13,71.34,118.65Z" transform="translate(-58.98 -49.77)"/><path class="cls-3" d="M1019.8,1816.43s6.62-83.55-46.21-88.34c0,0,57-10.4,57,94.71Z" transform="translate(-58.98 -49.77)"/><path class="cls-2" d="M1054.46,1821s-8.29-104.67,57.91-110.65c0,0-71.37-13-71.37,118.65Z" transform="translate(-58.98 -49.77)"/><path class="cls-3" d="M1062.22,1816.43s-6.61-83.55,46.22-88.34c0,0-57-10.4-57,94.71Z" transform="translate(-58.98 -49.77)"/><path class="cls-3" d="M1060.3,1650.67S1010,1702.05,1041,1829l6.2-3.68S1021.7,1721.11,1060.3,1650.67Z" transform="translate(-58.98 -49.77)"/><path class="cls-2" d="M1085.12,1674s-53.77,53-50.3,151.3L1041,1829S1048.6,1717.1,1085.12,1674Z" transform="translate(-58.98 -49.77)"/><path class="cls-3" d="M1034.82,1825.33s-4.18-76.18,53.75-66.53c0,0-53.75,11.5-47.57,70.21Z" transform="translate(-58.98 -49.77)"/><path class="cls-3" d="M990,1766.51s26.54,8.27,29.81,49.92l5.79,3.45S1024.44,1767.33,990,1766.51Z" transform="translate(-58.98 -49.77)"/><path class="cls-2" d="M1227.78,1854.94s11.92-151.2-83.67-159.84c0,0,103.06-18.81,103.06,171.38Z" transform="translate(-58.98 -49.77)"/><path class="cls-3" d="M1216.55,1848.31s9.54-120.68-66.76-127.58c0,0,82.26-15,82.26,136.79Z" transform="translate(-58.98 -49.77)"/><path class="cls-2" d="M1266.6,1854.94s-11.95-151.2,83.64-159.84c0,0-103.07-18.81-103.07,171.38Z" transform="translate(-58.98 -49.77)"/><path class="cls-3" d="M1277.8,1848.31s-9.54-120.68,66.79-127.58c0,0-82.29-15-82.29,136.79Z" transform="translate(-58.98 -49.77)"/><path class="cls-3" d="M1275,1608.9s-72.66,74.21-27.87,257.58l8.94-5.32S1219.3,1710.63,1275,1608.9Z" transform="translate(-58.98 -49.77)"/><path class="cls-2" d="M1310.9,1642.65s-77.68,76.6-72.69,218.49l9,5.34S1258.14,1704.82,1310.9,1642.65Z" transform="translate(-58.98 -49.77)"/><path class="cls-3" d="M1238.21,1861.14s-6-110,77.67-96.08c0,0-77.65,16.65-68.71,101.42Z" transform="translate(-58.98 -49.77)"/><path class="cls-3" d="M1173.5,1776.2s38.33,12,43,72.11l8.37,5S1223.26,1777.39,1173.5,1776.2Z" transform="translate(-58.98 -49.77)"/><path class="cls-2" d="M1173.5,1853.28s78.92-37.29,142.38-7S1287.94,1907.64,1173.5,1853.28Z" transform="translate(-58.98 -49.77)"/><path class="cls-2" d="M483,1578.32s8.33-105.11-58.15-111.11c0,0,71.66-13.09,71.66,119.14Z" transform="translate(-58.98 -49.77)"/><path class="cls-3" d="M475.25,1573.7s6.63-83.9-46.43-88.69c0,0,57.2-10.43,57.2,95.12Z" transform="translate(-58.98 -49.77)"/><path class="cls-2" d="M510,1578.32s-8.3-105.11,58.15-111.11c0,0-71.64-13.09-71.64,119.14Z" transform="translate(-58.98 -49.77)"/><path class="cls-3" d="M517.82,1573.7s-6.64-83.9,46.43-88.69c0,0-57.2-10.43-57.2,95.12Z" transform="translate(-58.98 -49.77)"/><path class="cls-3" d="M515.92,1407.28s-50.52,51.6-19.38,179.07l6.21-3.69S477.15,1478,515.92,1407.28Z" transform="translate(-58.98 -49.77)"/><path class="cls-2" d="M540.82,1430.74s-54,53.24-50.53,151.9l6.25,3.71S504.16,1474,540.82,1430.74Z" transform="translate(-58.98 -49.77)"/><path class="cls-3" d="M490.29,1582.64s-4.13-76.5,54-66.79c0,0-54,11.55-47.75,70.5Z" transform="translate(-58.98 -49.77)"/><path class="cls-3" d="M445.3,1523.58s26.66,8.32,29.95,50.12l5.82,3.47S479.91,1524.39,445.3,1523.58Z" transform="translate(-58.98 -49.77)"/><path class="cls-2" d="M431.38,1574.68s69.78-33,125.89-6.18S532.58,1622.76,431.38,1574.68Z" transform="translate(-58.98 -49.77)"/><ellipse class="cls-12" cx="905.25" cy="808.38" rx="4.05" ry="4.95"/><ellipse class="cls-12" cx="943.68" cy="785.8" rx="3.56" ry="4.35"/><path class="cls-13" d="M957.07,890.9s33.37,34.85,47.66,1.68" transform="translate(-58.98 -49.77)"/><path class="cls-12" d="M-52,1254.65" transform="translate(-58.98 -49.77)"/><text class="cls-14" transform="translate(1381.9 1085.87) scale(0.77 1)">7분</text><text class="cls-15" transform="matrix(0.69, 0.58, -0.64, 0.77, 1366.09, 1818.86)">용</text><text class="cls-15" transform="matrix(0.85, 0.31, -0.34, 0.94, 1502.75, 1925.04)">산</text><text class="cls-15" transform="matrix(0.89, 0.1, -0.11, 0.99, 1657.28, 1977.9)">공</text><text class="cls-15" transform="translate(1813.51 1992.8) rotate(-2.65) scale(0.9 1)">원</text><text class="cls-15" transform="matrix(0.88, 0.19, -0.21, 0.98, 1949.06, 1983.03)">까</text><text class="cls-15" transform="translate(2079.09 2004.51) rotate(40.05) scale(0.9 1)">지</text><text class="cls-15" transform="translate(2175.6 2087.88) rotate(70.84) scale(0.9 1)">~</text><ellipse class="cls-16" cx="67.94" cy="1498.74" rx="4.86" ry="4.48"/><g class="cls-17"><polygon class="cls-18" points="69.51 1504.4 66.17 1502 66.27 1495.52 69.37 1497.7 70.09 1495.74 74.06 1498.57 69.51 1504.4"/></g><ellipse class="cls-19" cx="65.34" cy="1499.73" rx="0.33" ry="0.39"/><path class="cls-19" d="M126.48,1549.49a.34.34,0,1,1-.34-.4A.37.37,0,0,1,126.48,1549.49Z" transform="translate(-58.98 -49.77)"/><rect class="cls-12" x="64.94" y="1499.4" width="2.64" height="0.31"/><path class="cls-20" d="M126.19,1550.9a.91.91,0,0,1-.94.87h0a.92.92,0,0,1-1-.87v-3.07a.92.92,0,0,1,1-.87h0a.91.91,0,0,1,.94.87Z" transform="translate(-58.98 -49.77)"/><path class="cls-20" d="M126.73,1548.87a1.54,1.54,0,1,0-3,0,1.6,1.6,0,0,0,.08.53h2.81A1.38,1.38,0,0,0,126.73,1548.87Z" transform="translate(-58.98 -49.77)"/><ellipse class="cls-12" cx="66.27" cy="1497.63" rx="0.52" ry="0.99"/><path class="cls-19" d="M124.94,1546.16a1.06,1.06,0,0,1-.6.17h-.19a1.05,1.05,0,0,0,1.1,1,1.07,1.07,0,0,0,1.1-.94,1.86,1.86,0,0,1-.48.06A1.52,1.52,0,0,1,124.94,1546.16Z" transform="translate(-58.98 -49.77)"/><path class="cls-21" d="M125.25,1545.3h-.09a1.18,1.18,0,0,0-.57.2,1,1,0,0,0-.44.81h.19a1.06,1.06,0,0,0,.6-.17,1.52,1.52,0,0,0,.93.29,1.86,1.86,0,0,0,.48-.06v-.08A1.05,1.05,0,0,0,125.25,1545.3Z" transform="translate(-58.98 -49.77)"/><polygon class="cls-21" points="67.64 1499.51 67.64 1499.51 67.64 1499.51 67.64 1499.51 67.64 1499.49 67.64 1499.49 67.64 1499.49 67.64 1499.49 67.64 1499.51"/><polygon class="cls-22" points="66.87 1497.78 66.27 1497.62 66.87 1497.47 66.87 1497.78"/><polygon class="cls-22" points="65.67 1497.78 66.27 1497.62 65.67 1497.47 65.67 1497.78"/><g class="cls-23"><path d="M126.19,1550.9v-1a.37.37,0,0,0,.29-.38h.08v-.09h.09a1.38,1.38,0,0,0,.08-.53,2,2,0,0,0-.82-1.74,1,1,0,0,0,.44-.74v-.08a1.05,1.05,0,0,0-1.1-1h0v6.47h0A.91.91,0,0,0,126.19,1550.9Z" transform="translate(-58.98 -49.77)"/></g><path class="cls-24" d="M129.59,1546.66a1.28,1.28,0,0,1-1.21,1.3,1.26,1.26,0,0,1-1.21-1.3c0-1,.54-1.3,1.21-1.3A1.13,1.13,0,0,1,129.59,1546.66Z" transform="translate(-58.98 -49.77)"/><path class="cls-19" d="M128.07,1546.25a.93.93,0,0,1-.54.16h-.17a1,1,0,0,0,2,.06,1.49,1.49,0,0,1-.43.06A1.4,1.4,0,0,1,128.07,1546.25Z" transform="translate(-58.98 -49.77)"/><path class="cls-24" d="M128.35,1545.48h-.08a1,1,0,0,0-.51.18.9.9,0,0,0-.4.73h.17a.93.93,0,0,0,.54-.16,1.4,1.4,0,0,0,.84.27,1.49,1.49,0,0,0,.43-.06v-.07A1,1,0,0,0,128.35,1545.48Z" transform="translate(-58.98 -49.77)"/><polygon class="cls-21" points="70.61 1499.3 70.61 1499.3 70.61 1499.3 70.61 1499.3 70.61 1499.28 70.61 1499.28 70.61 1499.28 70.61 1499.28 70.61 1499.3"/><path class="cls-12" d="M128.35,1545.54a1,1,0,0,1,.67.24.71.71,0,0,0-.67-.52.71.71,0,0,0-.67.52A1,1,0,0,1,128.35,1545.54Z" transform="translate(-58.98 -49.77)"/><rect class="cls-19" x="69.05" y="1497.36" width="0.59" height="0.56"/><path class="cls-25" d="M128.32,1548.47c.72,0,1.4,1.85,1.37,3.19h-2.75C126.92,1550.32,127.6,1548.47,128.32,1548.47Z" transform="translate(-58.98 -49.77)"/><path class="cls-26" d="M129,1547.84a.39.39,0,0,1-.41.38H128a.39.39,0,0,1-.4-.38h0a.39.39,0,0,1,.4-.37h.57a.39.39,0,0,1,.41.37Z" transform="translate(-58.98 -49.77)"/><path class="cls-26" d="M127.67,1548.44c0,.53.36.81.29.85a.84.84,0,0,1-.6-.85c0-.78.46-1,.53-.93S127.66,1547.9,127.67,1548.44Z" transform="translate(-58.98 -49.77)"/><path class="cls-26" d="M129,1548.44c0,.53-.44.82-.36.85a.88.88,0,0,0,.67-.85c0-.75-.46-1-.54-.93S129,1547.9,129,1548.44Z" transform="translate(-58.98 -49.77)"/><path class="cls-25" d="M127.64,1548c0,.21.47.72.26.94-.07.07,1,.07.89,0s.28-.71.28-.93c0-.45-.6-.33-.72-.18C128.3,1547.68,127.64,1547.54,127.64,1548Z" transform="translate(-58.98 -49.77)"/><path class="cls-27" d="M128.89,1549.14a.29.29,0,0,1,.09.21.34.34,0,0,1-.28.33.39.39,0,0,1-.36.22.41.41,0,0,1-.31-.13.38.38,0,0,1-.36-.35h0a.37.37,0,0,1-.07-.2.33.33,0,0,1,.17-.28.39.39,0,0,1,.38-.25.46.46,0,0,1,.2,0,.41.41,0,0,1,.16,0,.37.37,0,0,1,.4.34.29.29,0,0,1,0,.09Z" transform="translate(-58.98 -49.77)"/><path class="cls-28" d="M127.85,1549a.21.21,0,0,0-.18.13.17.17,0,0,0,.08.2.25.25,0,0,1,0-.19.26.26,0,0,1,.11-.14Zm.71.58a.18.18,0,0,1-.16.19.19.19,0,0,1-.22-.12.26.26,0,0,0,.2,0,.33.33,0,0,0,.18-.11Zm-.34,0a.27.27,0,0,1-.32,0,.22.22,0,0,1-.05-.29.32.32,0,0,0,.13.21.37.37,0,0,0,.24.08Zm.15-.74a.27.27,0,0,1,.32,0,.23.23,0,0,1,0,.3.27.27,0,0,0-.12-.21.32.32,0,0,0-.24-.08Zm-.47.18a.24.24,0,0,1,.17-.25.25.25,0,0,1,.29.12.42.42,0,0,0-.25,0,.37.37,0,0,0-.21.15Zm.92.17a.18.18,0,0,1,.09.2.21.21,0,0,1-.19.14.28.28,0,0,0,.12-.16.22.22,0,0,0,0-.18Zm-.63-.2a.22.22,0,0,0-.22.06.17.17,0,0,0,0,.22.25.25,0,0,1,.07-.19.26.26,0,0,1,.16-.09Zm.37.19a.17.17,0,0,0-.12-.18.2.2,0,0,0-.23.06.26.26,0,0,1,.21,0,.24.24,0,0,1,.14.12Zm-.15.4a.22.22,0,0,0,.22,0,.17.17,0,0,0,0-.22.27.27,0,0,1-.07.18.32.32,0,0,1-.17.09Zm-.37-.28a.19.19,0,0,0,.09.19.2.2,0,0,0,.24,0,.32.32,0,0,1-.21,0,.25.25,0,0,1-.12-.13Zm.25-.12a.09.09,0,0,1,.09.08.09.09,0,0,1-.18,0,.09.09,0,0,1,.09-.08Z" transform="translate(-58.98 -49.77)"/><g class="cls-23"><path d="M129,1549a.87.87,0,0,0,.24-.6,1.1,1.1,0,0,0-.21-.72,1.38,1.38,0,0,0,.52-1.06,1.13,1.13,0,0,0-.82-1.26.68.68,0,0,0-.42-.14h0v6.4h1.38A5.62,5.62,0,0,0,129,1549Zm-.15-.21-.12-.13a2.67,2.67,0,0,1,.2-.42s0,.1,0,.16A.93.93,0,0,1,128.89,1548.83Z" transform="translate(-58.98 -49.77)"/></g><g id="cloud"><path class="cls-29" d="M281.44,149.1S297.13,78,333.72,106.44s59.25-19,80.16-23.69S485.33,54.31,515,120.66s80.16,23.7,97.59,14.22,69.7,19,54,42.65S642.16,201.23,616,206s-38.33,14.22-66.22,33.17S509.72,196.49,490.56,187s-12.2,19-55.77,33.18-76.67-19-83.64-28.44S284.93,229.67,281.44,149.1Z" transform="translate(-58.98 -49.77)"/><path class="cls-29" d="M1890.24,184.19s13.26-60.1,44.19-36.06,50.09-16,67.77-20,60.4-24,85.44,32.05,67.77,20,82.5,12,58.93,16,45.67,36.06-20.62,20-42.72,24-32.41,12-56,28-33.89-36.06-50.09-44.07-10.31,16-47.14,28-64.82-16-70.72-24S1893.18,252.3,1890.24,184.19Z" transform="translate(-58.98 -49.77)"/></g><path class="cls-30" d="M462.2,668.21S462.66,922,713.86,889.6l2.37,37.23s-253.68,62.75-272.69-259Z" transform="translate(-58.98 -49.77)"/><path class="cls-31" d="M798,1374.78c-75.65-18-85.48-211.66-62.85-392.64,17.29-138.48,23.63-470.86-2.51-572.26-8-31.14-6.68,44.24-27.42,33.5-32.7-17,27.42,212.68-19.56,428.94-15.31,70.47-86.25,155.09-74.94,264.42s-35.92,182.3-79.2,222.45c-8.6,8-50.9,34.88-21.2,42s66.44-26.85,96.14,0,82,72.11,96.18,45.23,4.22-62.19,35.32-52.3S824.48,1381.1,798,1374.78Z" transform="translate(-58.98 -49.77)"/><path class="cls-30" d="M663.81,1000.43c.06-.06,34.17-155.13,21.83-128.11-35.72,70.38-88.58,158.18-74.94,264.42,14,109-35.92,182.3-79.2,222.45-8.6,8-50.9,34.88-21.2,42,29,6.89,64.71-25.12,94-1.66,200.58-55.63-137.59-8.48,58.24-157.45,33.46-25.44,74-25,35.35-61.28C649.78,1135.54,618,1075.67,663.81,1000.43Z" transform="translate(-58.98 -49.77)"/><path class="cls-32" d="M558.45,203.46c7.19,7.1,39.08,7,25,31.26S549.24,263,520.84,290.26c-38.78,37.31-23.52,77-15.52,93.8s24.05,37.34,16,69.08,8.74,56,24.4,59.73,85.83,37.33,85.83,37.33,73.46,23.06,96.23,14.93c17.33-6.16,24.06-28,70.19-22.41s42,6.72,56.09,7.48c20.89,1.11,48.12-3.74,82.21-14.93s70.13-22.39,80.13-31.72,28.1-37.34,34.13-44.82,44.14,5.12,26.07-29.87c-23.72-45.75-14.07-76.53,10-115.72s-12-71-24.07-80.26,20.55-32.21-38.08-41.1c-77.06-11.66-20-56-90.2-57.84S896.21,117.12,810,119s-78.17-22.73-142.31-.17S528.92,174.37,558.45,203.46Z" transform="translate(-58.98 -49.77)"/><path class="cls-33" d="M512.66,181.62c8.38,6.59,45.48,6.53,29.13,29.12S502,237.05,469,262.48c-45.07,34.72-27.37,71.72-18.06,87.38s28,34.78,18.63,64.36,10.22,52.15,28.41,55.62,99.83,34.78,99.83,34.78,85.44,21.49,111.92,13.94c20.13-5.75,28-26.1,81.63-20.89s48.8,6.26,65.25,6.95c24.35,1,56-3.47,95.63-13.9s81.58-20.85,93.26-29.56,32.65-34.78,39.61-41.74,51.37,4.79,30.32-27.82c-27.53-42.6-16.28-71.31,11.64-107.82s-14-66.08-27.92-74.77,23.84-30-44.35-38.27c-89.62-10.85-23.31-52.18-104.92-53.88s-44.31-15.67-144.54-13.94-90.93-21.15-165.57-.15S478.33,154.51,512.66,181.62Z" transform="translate(-58.98 -49.77)"/><path class="cls-32" d="M532.24,183.36c5.39,5.56,29.4,5.5,18.86,24.59s-25.78,22.19-47.18,43.66c-29.16,29.33-17.71,60.55-11.7,73.78s18.11,29.34,12.09,54.3,6.57,44.05,18.39,47S587.33,456,587.33,456s55.31,18.13,72.42,11.75c13.06-4.87,18.15-22,52.85-17.62s31.59,5.27,42.24,5.87c15.75.86,36.24-2.94,61.92-11.75s52.78-17.61,60.36-25S898.26,390,902.79,384.1s33.23,4,19.63-23.48c-17.83-36-10.58-60.2,7.53-91s-9.08-55.78-18.11-63.12,15.47-25.31-28.7-32.3c-58-9.18-15.09-44-67.92-45.5s-28.69-13.23-93.54-11.75S662.81,99,614.49,116.78,510,160.45,532.24,183.36Z" transform="translate(-58.98 -49.77)"/><path class="cls-32" d="M545.76,512.87c15.67,3.72,85.83,37.33,85.83,37.33s73.46,23.06,96.23,14.93c17.33-6.16,24.06-28,70.19-22.41s42,6.72,56.09,7.48c20.89,1.11,48.12-3.74,82.21-14.93s70.13-22.39,80.13-31.72,28.1-37.34,34.13-44.82,44.14,5.12,26.07-29.87c-23.72-45.75-14.07-76.53,10-115.72s-12-71-24.07-80.26,20.55-32.21-38.08-41.1a123.28,123.28,0,0,1-16.63-3.57c-8.82,22.9,23.52,35,35.39,56.75,24.08,44.11-4.7,76.72-29.41,117.55s25.92,111.24-72.81,90.91c-34.28-7-103.26,55.21-131.3,50.13s-66.14-30.07-86.19,22c-11.72,30.51-43.11,21.06-198.78-32C529.9,504,538,511,545.76,512.87Z" transform="translate(-58.98 -49.77)"/><path class="cls-33" d="M664.15,151.55c4.79,4.72,26.07,4.69,16.71,20.87s-22.87,18.81-41.8,37c-25.86,24.89-15.69,51.37-10.34,62.58s16,24.9,10.68,46.06,5.82,37.38,16.32,39.86,57.22,24.91,57.22,24.91,49,15.36,64.21,10c11.51-4.12,16-18.68,46.78-14.94s28,4.46,37.42,5c14,.73,32.1-2.49,54.85-10S963,358,969.66,351.72s18.75-24.89,22.77-29.88,29.46,3.42,17.38-19.94c-15.79-30.49-9.36-51,6.67-77.19s-8-47.33-16-53.54,13.69-21.49-25.42-27.39c-51.41-7.78-13.39-37.36-60.19-38.61S889.45,94,832,95.22s-52.16-15.17-95-.13S644.44,132.16,664.15,151.55Z" transform="translate(-58.98 -49.77)"/><path class="cls-32" d="M799.7,101.63c-86.21,1.88-67.86-5.36-132,17.2s-138.78,55.54-109.25,84.63c7.19,7.1,39.08,7,25,31.26S549.24,263,520.84,290.26c-22.86,22-26.91,44.83-24.74,63.32,13,21.87,28.66,24,28.66,24s73.49,25.78,83.54,21.76,131.27,34.09,78.16-61.24c-13.88-24.93,62.14-22.93,86.49-47s87.91,10,139.59-14,62.56-34.1,44.53-58.14-12-46.1-28.07-50.1-42.1-12-69.87-48.11C848.71,119.26,823.62,101.11,799.7,101.63Z" transform="translate(-58.98 -49.77)"/><path class="cls-33" d="M781.08,64.65c-63,1.37-49.64-3.93-96.55,12.58s-101.45,40.59-79.85,61.88c5.25,5.16,28.57,5.11,18.29,22.85s-25,20.62-45.76,40.6c-16.75,16.09-19.7,32.75-18.12,46.28,9.51,16,21,17.51,21,17.51s53.71,18.86,61.06,15.93,96,24.9,57.15-44.79c-10.12-18.22,45.43-16.77,63.24-34.35s64.26,7.33,102-10.25,45.77-24.92,32.54-42.51-8.77-33.71-20.47-36.63S844.8,105,824.53,78.57C816.87,77.54,798.53,64.27,781.08,64.65Z" transform="translate(-58.98 -49.77)"/><path class="cls-32" d="M759.85,51.06c-31.64-1.15-24.75-3.39-48.76,3.48s-52,17.39-41.8,28.69c2.45,2.74,14.15,3.41,8.5,12s-13.13,9.59-24.12,19c-8.86,7.56-10.84,15.84-10.45,22.68,4.29,8.27,10,9.36,10,9.36s26.38,11,30.16,9.78,47.38,15.3,29.94-20.78c-4.57-9.42,23.26-7.08,32.71-15.38s32,5.57,51.39-2.15S821.08,106.59,815,97.39s-3.44-17.16-9.23-19-15.15-5.3-24.56-19.13C777.42,58.57,768.62,51.37,759.85,51.06Z" transform="translate(-58.98 -49.77)"/><path class="cls-32" d="M255.77,482.33c5.65,5.55,30.57,5.46,19.61,24.45s-26.77,22.07-49,43.42c-30.33,29.16-18.39,60.21-12.16,73.34s18.81,29.21,12.54,54,6.84,43.8,19.1,46.71S313,753.45,313,753.45s57.46,18,75.25,11.66c13.55-4.81,18.82-21.88,54.86-17.51s32.83,5.25,43.89,5.85c16.36.87,37.62-2.92,64.27-11.68s54.83-17.51,62.68-24.8,22-29.18,26.66-35.05,34.5,4,20.37-23.35c-18.51-35.76-11-59.84,7.84-90.49S659.4,512.6,650,505.33s16.09-25.19-29.77-32.11C560,464.08,604.54,429.43,549.67,428s-29.78-13.17-97.18-11.68-61.13-17.78-111.28-.14S232.68,459.57,255.77,482.33Z" transform="translate(-58.98 -49.77)"/><path class="cls-33" d="M220,465.24c6.59,5.16,35.55,5.11,22.81,22.78s-31.16,20.55-57,40.46c-35.26,27.16-21.42,56.08-14.12,68.32s21.86,27.19,14.58,50.31,7.94,40.79,22.18,43.51,78.09,27.2,78.09,27.2,66.79,16.8,87.49,10.88c15.74-4.5,21.9-20.4,63.83-16.32s38.17,4.88,51,5.44c19,.81,43.77-2.73,74.74-10.89s63.82-16.3,73-23.11,25.52-27.19,31-32.63,40.16,3.75,23.67-21.75c-21.54-33.32-12.75-55.75,9.14-84.3s-11-51.69-21.89-58.47,18.69-23.45-34.66-29.94c-70.08-8.47-18.2-40.78-82-42.13s-34.64-12.25-113-10.87-71.08-16.56-129.44-.14S193.15,444,220,465.24Z" transform="translate(-58.98 -49.77)"/><path class="cls-32" d="M235.28,466.61c4.24,4.35,23,4.28,14.76,19.21s-20.17,17.36-36.9,34.16c-22.8,22.93-13.83,47.35-9.13,57.68s14.17,23,9.45,42.49,5.13,34.42,14.37,36.71,50.56,23,50.56,23S321.61,694,335,689c10.18-3.8,14.14-17.23,41.31-13.78s24.69,4.13,33,4.59c12.31.68,28.34-2.3,48.42-9.18s41.28-13.77,47.2-19.52S521.5,628.18,525,623.58s26,3.14,15.33-18.36c-13.94-28.14-8.23-47.07,5.91-71.18s-7.09-43.63-14.14-49.35,12.09-19.81-22.48-25.28c-45.32-7.15-11.78-34.42-53.09-35.59s-22.4-10.31-73.15-9.16-46-14-83.82-.1S217.9,448.7,235.28,466.61Z" transform="translate(-58.98 -49.77)"/><path class="cls-32" d="M245.88,724.26c12.23,2.91,67.09,29.19,67.09,29.19s57.46,18,75.25,11.66c13.55-4.81,18.82-21.88,54.86-17.51s32.83,5.25,43.89,5.85c16.36.87,37.62-2.92,64.27-11.68s54.83-17.51,62.68-24.8,22-29.18,26.66-35.05,34.5,4,20.37-23.35c-18.51-35.76-11-59.84,7.84-90.49S659.4,512.6,650,505.33s16.09-25.19-29.77-32.11a105.3,105.3,0,0,1-13-2.82c-6.9,17.9,18.42,27.35,27.7,44.35,18.81,34.5-3.69,60-23,91.93s20.3,87-56.92,71.11c-26.81-5.52-80.73,43.15-102.67,39.18s-51.72-23.52-67.39,17.24c-9.15,23.85-33.68,16.46-155.44-25C233.48,717.36,239.78,722.81,245.88,724.26Z" transform="translate(-58.98 -49.77)"/><path class="cls-33" d="M338.42,441.73c3.78,3.7,20.39,3.68,13.09,16.32s-17.89,14.72-32.69,29c-20.21,19.46-12.26,40.18-8.09,48.92s12.54,19.48,8.36,36,4.57,29.2,12.75,31.15,44.75,19.47,44.75,19.47,38.3,12,50.19,7.8c9-3.22,12.54-14.6,36.58-11.69s21.91,3.49,29.27,3.89c10.92.58,25.12-1.93,42.9-7.78s36.59-11.68,41.81-16.55S592,578.8,595.12,574.88s23,2.67,13.61-15.57c-12.35-23.85-7.34-39.91,5.19-60.38s-6.24-37-12.53-41.86,10.7-16.8-19.87-21.41c-40.2-6.09-10.47-29.22-47-30.18s-19.88-8.77-64.82-7.81-40.8-11.83-74.27-.07S323,426.56,338.42,441.73Z" transform="translate(-58.98 -49.77)"/><path class="cls-32" d="M444.44,402.71c-67.41,1.46-53.08-4.2-103.23,13.44s-108.53,43.42-85.44,66.18c5.65,5.55,30.57,5.46,19.61,24.45s-26.77,22.07-49,43.42c-17.9,17.22-21.05,35-19.36,49.51,10.15,17.1,22.39,18.73,22.39,18.73s57.5,20.15,65.35,17,102.64,26.66,61.1-47.89c-10.85-19.49,48.58-17.94,67.63-36.74s68.71,7.83,109.16-11,48.92-26.65,34.79-45.45-9.38-36.06-21.92-39.21-32.93-9.4-54.64-37.59C482.74,416.47,463.13,402.3,444.44,402.71Z" transform="translate(-58.98 -49.77)"/><path class="cls-33" d="M429.87,373.79c-49.3,1.06-38.84-3.07-75.49,9.83S275,415.35,291.94,432c4.1,4.05,22.32,4,14.32,17.88s-19.57,16.11-35.8,31.72c-13.09,12.58-15.41,25.62-14.15,36.21,7.41,12.49,16.36,13.68,16.36,13.68s42,14.74,47.75,12.46,75.1,19.47,44.7-35c-7.94-14.24,35.52-13.11,49.43-26.88s50.24,5.73,79.8-8,35.78-19.49,25.46-33.24-6.87-26.35-16-28.65-24.09-6.88-39.93-27.5C457.88,383.85,443.51,373.48,429.87,373.79Z" transform="translate(-58.98 -49.77)"/><path class="cls-32" d="M413.26,363.16c-24.72-.89-19.35-2.65-38.11,2.72s-40.66,13.6-32.7,22.44c1.94,2.14,11.06,2.64,6.64,9.35s-10.28,7.52-18.85,14.89c-6.92,5.89-8.46,12.37-8.16,17.71,3.35,6.48,7.82,7.33,7.82,7.33s20.62,8.63,23.54,7.62,37.05,12,23.42-16.22c-3.54-7.38,18.2-5.55,25.57-12s25,4.36,40.21-1.67,18.51-8.72,13.75-15.91-2.71-13.41-7.19-14.83S437.29,380.4,430,369.62C427,369,420.12,363.4,413.26,363.16Z" transform="translate(-58.98 -49.77)"/><path class="cls-31" d="M950.63,500.9S941.37,752.39,723.51,729l-3.31,37s218.92,53.37,246.65-266Z" transform="translate(-58.98 -49.77)"/><path class="cls-32" d="M877.22,365.87c4.82,4.74,26.11,4.68,16.73,20.87s-22.85,18.84-41.8,37c-25.85,24.86-15.7,51.36-10.35,62.57s16.05,24.91,10.67,46.07,5.86,37.37,16.31,39.85S926,597.17,926,597.17s49,15.37,64.21,10c11.55-4.13,16-18.69,46.81-15s28,4.48,37.43,5c14,.74,32.09-2.5,54.85-10s46.78-14.93,53.45-21.15,18.72-24.9,22.75-29.88,29.47,3.39,17.38-19.94c-15.82-30.51-9.36-51,6.69-77.19s-8-47.33-16-53.56,13.69-21.48-25.42-27.39c-51.41-7.77-13.36-37.34-60.16-38.58s-25.42-11.24-82.9-10-52.17-15.18-94.94-.13S857.51,346.47,877.22,365.87Z" transform="translate(-58.98 -49.77)"/><path class="cls-33" d="M846.72,351.3c5.6,4.41,30.3,4.35,19.43,19.44s-26.58,17.54-48.6,34.52c-30.08,23.18-18.28,47.84-12.06,58.27s18.67,23.2,12.46,42.94,6.77,34.79,18.93,37.09,66.58,23.2,66.58,23.2,57,14.35,74.67,9.31c13.41-3.83,18.66-17.41,54.43-13.93s32.57,4.17,43.54,4.62c16.26.71,37.35-2.31,63.77-9.26s54.45-13.91,62.21-19.73,21.79-23.2,26.46-27.83,34.24,3.18,20.21-18.56c-18.39-28.43-10.87-47.56,7.78-71.93s-9.34-44.09-18.65-49.88,15.92-20-29.59-25.52c-59.78-7.24-15.52-34.8-70-35.95s-29.58-10.44-96.41-9.29-60.68-14.12-110.49-.1S823.79,333.22,846.72,351.3Z" transform="translate(-58.98 -49.77)"/><path class="cls-32" d="M859.77,352.46c3.59,3.72,19.59,3.69,12.57,16.4s-17.2,14.79-31.48,29.14c-19.45,19.55-11.8,40.38-7.79,49.19s12.07,19.6,8.08,36.25,4.38,29.37,12.23,31.33,43.14,19.61,43.14,19.61,36.86,12.08,48.32,7.82c8.68-3.25,12.06-14.7,35.22-11.75s21.08,3.5,28.18,3.93c10.53.55,24.19-2,41.32-7.85s35.19-11.75,40.24-16.64,14.11-19.59,17.12-23.52,22.19,2.69,13.11-15.66c-11.91-24-7-40.15,5-60.72s-6-37.22-12-42.1,10.3-16.89-19.18-21.56c-38.66-6.1-10-29.36-45.3-30.35s-19.13-8.8-62.37-7.85-39.32-11.91-71.51-.07S844.91,337.21,859.77,352.46Z" transform="translate(-58.98 -49.77)"/><path class="cls-32" d="M868.78,572.27c10.44,2.48,57.23,24.9,57.23,24.9s49,15.37,64.21,10c11.55-4.13,16-18.69,46.81-15s28,4.48,37.43,5c14,.74,32.09-2.5,54.85-10s46.78-14.93,53.45-21.15,18.72-24.9,22.75-29.88,29.47,3.39,17.38-19.94c-15.82-30.51-9.36-51,6.69-77.19s-8-47.33-16-53.56,13.69-21.48-25.42-27.39a85.26,85.26,0,0,1-11.09-2.38c-5.88,15.27,15.72,23.33,23.63,37.85,16.06,29.41-3.16,51.18-19.63,78.4s17.3,74.21-48.57,60.66c-22.87-4.71-68.87,36.82-87.6,33.43s-44.12-20.06-57.47,14.7c-7.85,20.34-28.78,14-132.62-21.32C858.19,566.39,863.58,571,868.78,572.27Z" transform="translate(-58.98 -49.77)"/><path class="cls-33" d="M947.76,331.25c3.16,3.16,17.37,3.13,11.13,13.93S943.64,357.73,931,369.87c-17.26,16.6-10.5,34.27-6.93,41.74s10.72,16.61,7.14,30.75,3.89,24.9,10.86,26.56,38.18,16.62,38.18,16.62,32.71,10.27,42.84,6.65c7.7-2.76,10.72-12.46,31.21-10s18.7,3,25,3.32c9.28.49,21.4-1.66,36.58-6.64s31.2-10,35.67-14.12,12.51-16.62,15.18-19.94,19.65,2.28,11.58-13.3c-10.52-20.35-6.23-34.05,4.48-51.48s-5.35-31.57-10.71-35.73,9.12-14.32-17-18.26c-34.28-5.2-8.91-24.93-40.13-25.76s-16.93-7.48-55.31-6.64-34.8-10.12-63.33-.07S934.59,318.29,947.76,331.25Z" transform="translate(-58.98 -49.77)"/><path class="cls-32" d="M1038.17,297.94c-57.49,1.27-45.29-3.57-88.06,11.48s-92.6,37.05-72.89,56.45c4.82,4.74,26.11,4.68,16.73,20.87s-22.85,18.84-41.8,37c-15.23,14.67-17.95,29.9-16.52,42.23,8.7,14.59,19.13,16,19.13,16s49,17.21,55.72,14.53,87.6,22.75,52.15-40.87c-9.25-16.63,41.44-15.3,57.7-31.33S1079,431,1113.45,415s41.71-22.74,29.69-38.77-8-30.77-18.71-33.44-28.08-8-46.62-32.11C1070.87,309.72,1054.13,297.6,1038.17,297.94Z" transform="translate(-58.98 -49.77)"/><path class="cls-33" d="M1025.72,273.28c-42,.91-33.09-2.61-64.38,8.4s-67.66,27.06-53.26,41.25c3.51,3.48,19.06,3.42,12.22,15.27S903.57,352,889.76,365.27c-11.16,10.73-13.14,21.84-12.09,30.88,6.33,10.66,14,11.69,14,11.69s35.86,12.58,40.71,10.61,64.06,16.61,38.15-29.88c-6.76-12.14,30.31-11.18,42.17-22.91s42.87,4.89,68.09-6.84,30.52-16.62,21.71-28.35S1096.63,308,1088.81,306s-20.53-5.86-34.08-23.47C1049.63,281.88,1037.4,273,1025.72,273.28Z" transform="translate(-58.98 -49.77)"/><path class="cls-32" d="M1011.59,264.21c-21.09-.75-16.51-2.27-32.51,2.33s-34.71,11.61-27.9,19.14c1.63,1.83,9.45,2.26,5.66,8s-8.78,6.4-16.09,12.67c-5.9,5.05-7.22,10.57-7,15.12,2.85,5.54,6.67,6.27,6.67,6.27s17.58,7.33,20.07,6.51,31.62,10.2,20-13.86c-3-6.29,15.48-4.71,21.81-10.25s21.32,3.71,34.27-1.45,15.83-7.43,11.74-13.55-2.3-11.45-6.13-12.67-10.16-3.53-16.42-12.74C1023.32,269.22,1017.43,264.42,1011.59,264.21Z" transform="translate(-58.98 -49.77)"/></svg>